<svg width="25" height="25" viewBox="0 0 25 25" fill="none" xmlns="http://www.w3.org/2000/svg">
<path fill-rule="evenodd" clip-rule="evenodd" d="M11.1405 0.0164411C11.0238 0.0338623 10.6577 0.0968906 10.327 0.156378C9.9963 0.215864 9.44611 0.344682 9.10431 0.442623C8.76258 0.540564 8.17398 0.746573 7.79639 0.900389C7.41887 1.05421 6.79865 1.35646 6.41816 1.57217C6.03766 1.78781 5.41086 2.1994 5.02521 2.48671C4.63955 2.77402 4.02676 3.30678 3.66339 3.6705C3.30008 4.03429 2.79502 4.60898 2.54115 4.94763C2.28727 5.28635 1.92284 5.82697 1.73128 6.14919C1.53973 6.47134 1.23167 7.07436 1.04662 7.48914C0.861646 7.90399 0.631822 8.51437 0.535974 8.84558C0.440125 9.17672 0.313082 9.68314 0.253734 9.97087C0.194386 10.2586 0.11311 10.7795 0.0732141 11.1285C0.0332478 11.4775 0.000355527 12.0825 1.84336e-06 12.473C-0.000281104 12.8636 0.0320455 13.4531 0.0718703 13.7831C0.111766 14.1132 0.194528 14.6382 0.255856 14.9498C0.317185 15.2614 0.463469 15.8184 0.580962 16.1875C0.698385 16.5566 0.920852 17.1462 1.07527 17.4976C1.22976 17.8491 1.52501 18.4239 1.73135 18.7751C1.93776 19.1262 2.33891 19.7158 2.62285 20.0852C2.90679 20.4546 3.41142 21.0278 3.74438 21.3589C4.07734 21.6901 4.67188 22.2038 5.0656 22.5005C5.45932 22.7973 6.09595 23.2179 6.48033 23.4353C6.86472 23.6527 7.49753 23.9578 7.88658 24.1133C8.27563 24.2687 8.87293 24.4764 9.21388 24.5749C9.5549 24.6734 10.1279 24.8097 10.4871 24.8777C10.9805 24.9711 11.5043 25.001 12.6259 25C13.9637 24.9988 14.2 24.9798 15.0028 24.8093C15.493 24.7051 16.1774 24.5207 16.5237 24.3995C16.8699 24.2783 17.4497 24.0395 17.8121 23.8689C18.1747 23.6983 18.6681 23.4403 18.9086 23.2956C19.1491 23.1509 19.6324 22.8196 19.9826 22.5592C20.3327 22.299 20.8169 21.9049 21.0585 21.6835C21.3002 21.4621 21.7437 20.9878 22.044 20.6294C22.3445 20.271 22.7786 19.691 23.0089 19.3405C23.2391 18.9899 23.5974 18.3526 23.8051 17.9241C24.0127 17.4957 24.2785 16.8683 24.3957 16.5299C24.5128 16.1916 24.6966 15.5224 24.804 15.0428C24.9875 14.2236 24.9993 14.0678 25 12.4712C25.0006 10.9666 24.9822 10.6862 24.8398 10.028C24.7513 9.61898 24.556 8.91456 24.4057 8.46253C24.2553 8.0105 23.9863 7.34948 23.8077 6.99355C23.6292 6.63762 23.3515 6.13106 23.1908 5.8679C23.0301 5.60475 22.7535 5.19818 22.5762 4.96448C22.3989 4.73078 22.0452 4.30403 21.7902 4.01616C21.5353 3.72829 21.0243 3.2395 20.6546 2.92996C20.285 2.62048 19.7279 2.19898 19.4167 1.99332C19.1054 1.78767 18.5197 1.45312 18.115 1.24995C17.7104 1.0467 17.0101 0.757408 16.5588 0.607062C16.1076 0.456716 15.42 0.265224 15.031 0.181518C14.464 0.0595693 14.0289 0.0250104 12.8381 0.00702268C12.0211 -0.0052288 11.2572 -0.00105086 11.1405 0.0164411ZM13.2721 4.55239C13.4225 4.63015 13.6351 4.82079 13.7447 4.97602C13.8542 5.13119 13.9728 5.3833 14.0083 5.53626C14.0437 5.68916 14.0734 6.98541 14.0743 8.41685L14.076 11.0194H16.8621H19.6483L19.9873 11.2496C20.1738 11.3762 20.3858 11.5961 20.4584 11.7383C20.531 11.8805 20.6089 12.1106 20.6314 12.2494C20.6563 12.4028 20.6248 12.649 20.5512 12.8761C20.4846 13.0818 20.3612 13.3261 20.277 13.4189C20.1929 13.5117 19.9649 13.6627 19.7703 13.7546C19.4184 13.9207 19.4039 13.9216 16.7464 13.9222L14.076 13.9229V16.5657C14.076 18.6839 14.0554 19.2779 13.9722 19.5578C13.915 19.7499 13.7766 20.0073 13.6646 20.1298C13.5525 20.2523 13.3525 20.4089 13.2202 20.4777C13.0748 20.5533 12.8234 20.6028 12.5846 20.603C12.2991 20.6033 12.1039 20.556 11.88 20.4323C11.7097 20.3381 11.4975 20.1528 11.4083 20.0203C11.3192 19.8878 11.2118 19.6513 11.1697 19.4947C11.1191 19.3065 11.1011 18.3154 11.1168 16.5701L11.1405 13.9302L8.311 13.9088C6.07996 13.8921 5.44411 13.867 5.30469 13.7905C5.20743 13.7372 5.02167 13.5938 4.89194 13.4718C4.76214 13.3499 4.61097 13.1641 4.55594 13.059C4.50091 12.9537 4.45585 12.6899 4.45585 12.4724C4.45585 12.255 4.49978 11.9746 4.55354 11.8492C4.60722 11.7239 4.75846 11.5197 4.88953 11.3955C5.02061 11.2714 5.21747 11.1359 5.32697 11.0945C5.45508 11.0462 6.52072 11.0194 8.3156 11.0194H11.1051V8.35425C11.1051 6.45066 11.1299 5.60581 11.1921 5.3976C11.2423 5.22962 11.4049 4.97999 11.5759 4.80854C11.7392 4.64488 11.9786 4.47874 12.1079 4.43937C12.2372 4.40006 12.4905 4.37754 12.6709 4.38944C12.8512 4.40127 13.1217 4.47463 13.2721 4.55239Z" fill="white"/>
</svg>
