<svg width="26" height="82" viewBox="0 0 26 82" fill="none" xmlns="http://www.w3.org/2000/svg">
<path fill-rule="evenodd" clip-rule="evenodd" d="M1.73584 0.331127C2.4768 -0.0401506 3.33489 -0.101892 4.12136 0.159485C4.90784 0.420861 5.55827 0.983947 5.92959 1.72488L24.6796 39.2249C24.8974 39.6594 25.0107 40.1388 25.0107 40.6249C25.0107 41.111 24.8974 41.5903 24.6796 42.0249L5.92959 79.5249C5.74769 79.895 5.49431 80.2255 5.18408 80.4972C4.87385 80.769 4.5129 80.9766 4.12204 81.1082C3.73117 81.2398 3.31813 81.2927 2.90672 81.2639C2.49531 81.2351 2.09367 81.1251 1.72496 80.9404C1.35625 80.7556 1.02775 80.4997 0.758418 80.1873C0.489084 79.875 0.284238 79.5125 0.155687 79.1206C0.0271359 78.7287 -0.0225758 78.3153 0.00941725 77.9041C0.0414103 77.4929 0.154475 77.0921 0.342095 76.7249L18.3858 40.6249L0.342095 4.52488C-0.0291828 3.78392 -0.0909253 2.92583 0.170451 2.13936C0.431828 1.35289 0.994914 0.702449 1.73584 0.331127Z" fill="white"/>
</svg>
