<svg width="26" height="82" viewBox="0 0 26 82" fill="none" xmlns="http://www.w3.org/2000/svg">
<path fill-rule="evenodd" clip-rule="evenodd" d="M23.2749 0.331127C22.5339 -0.0401506 21.6759 -0.101892 20.8894 0.159485C20.1029 0.420861 19.4525 0.983947 19.0811 1.72488L0.33115 39.2249C0.11339 39.6594 3.8147e-06 40.1388 3.8147e-06 40.6249C3.8147e-06 41.111 0.11339 41.5903 0.33115 42.0249L19.0811 79.5249C19.2631 79.895 19.5164 80.2255 19.8267 80.4972C20.1369 80.769 20.4978 80.9766 20.8887 81.1082C21.2796 81.2398 21.6926 81.2927 22.104 81.2639C22.5154 81.2351 22.9171 81.1251 23.2858 80.9404C23.6545 80.7556 23.983 80.4997 24.2523 80.1873C24.5217 79.875 24.7265 79.5125 24.8551 79.1206C24.9836 78.7287 25.0333 78.3153 25.0013 77.9041C24.9693 77.4929 24.8563 77.0921 24.6686 76.7249L6.6249 40.6249L24.6686 4.52488C25.0399 3.78392 25.1017 2.92583 24.8403 2.13936C24.5789 1.35289 24.0158 0.702449 23.2749 0.331127Z" fill="white"/>
</svg>
