<svg width="25" height="23" viewBox="0 0 25 23" fill="none" xmlns="http://www.w3.org/2000/svg">
<path fill-rule="evenodd" clip-rule="evenodd" d="M10.4929 0.0601356C10.3985 0.0922267 10.2475 0.167799 10.1573 0.228122C10.0671 0.288409 9.93581 0.424157 9.86558 0.529742C9.79536 0.635291 9.47991 1.15576 9.16461 1.68628C8.84927 2.21681 8.12325 3.43553 7.55122 4.39456C6.97916 5.35358 6.31798 6.46378 6.08188 6.86168C5.84577 7.25957 5.56954 7.72283 5.46804 7.89119L5.28349 8.19726H2.92273C1.02639 8.19726 0.53773 8.20713 0.438524 8.24739C0.370629 8.27495 0.260273 8.35816 0.193257 8.43225C0.126279 8.50638 0.0513208 8.63244 0.026691 8.71235C0.00114476 8.7952 -0.00737112 8.92731 0.00687215 9.01961C0.020619 9.10869 0.0652199 9.23138 0.10604 9.29226C0.146823 9.35318 0.270965 9.47019 0.381894 9.55232C0.492785 9.63443 0.616011 9.7658 0.655686 9.84422C0.719227 9.96981 0.727055 10.067 0.721327 10.6595C0.717738 11.0295 0.731332 11.485 0.751494 11.6717C0.773412 11.8746 0.818853 12.0696 0.864485 12.1565C0.906451 12.2364 1.00929 12.3591 1.09295 12.4291C1.17665 12.4992 1.27995 12.5815 1.32252 12.6121C1.39454 12.6639 1.40672 12.7651 1.49906 14.0775C1.55358 14.8529 1.64061 16.0883 1.69239 16.8229C1.74417 17.5575 1.82146 18.4801 1.86411 18.8732C1.90676 19.2663 1.95835 19.6669 1.97882 19.7636C1.99925 19.8602 2.03213 20.0269 2.05191 20.134C2.07169 20.2411 2.13076 20.4852 2.18315 20.6765C2.23558 20.8678 2.33643 21.1662 2.40726 21.3396C2.47814 21.513 2.61755 21.7819 2.7171 21.937C2.81665 22.0922 2.99888 22.3171 3.1221 22.4368C3.26763 22.5782 3.44412 22.7008 3.62592 22.7868C3.77981 22.8595 3.99678 22.9373 4.10806 22.9595C4.25053 22.988 6.73249 23 12.4942 23C17.8711 23 20.7484 22.9871 20.8836 22.9623C20.9967 22.9416 21.2096 22.8686 21.3566 22.8C21.5036 22.7314 21.6982 22.6124 21.7889 22.5356C21.8797 22.4589 22.0401 22.2857 22.1454 22.1508C22.2507 22.0159 22.4022 21.772 22.4821 21.6088C22.562 21.4455 22.6791 21.1534 22.7424 20.9595C22.8057 20.7657 22.9025 20.39 22.9577 20.1248C23.0128 19.8595 23.0746 19.5256 23.0948 19.3828C23.1151 19.24 23.1576 18.8142 23.1892 18.4367C23.2207 18.0593 23.2718 17.4082 23.3027 16.9899C23.3336 16.5716 23.4112 15.4864 23.475 14.5784C23.5389 13.6704 23.6005 12.8573 23.6119 12.7715C23.6302 12.6349 23.6528 12.6048 23.793 12.5298C23.8837 12.4813 24.0056 12.3682 24.074 12.2691C24.1405 12.1727 24.2135 12.0094 24.2363 11.906C24.2594 11.8012 24.2778 11.3357 24.2778 10.8539C24.2778 10.0285 24.2816 9.98272 24.3637 9.83421C24.4109 9.74866 24.534 9.61666 24.6372 9.54082C24.7403 9.46503 24.8598 9.35692 24.9027 9.30057C24.9559 9.23071 24.9856 9.12357 24.996 8.96363C25.008 8.7811 24.9945 8.69688 24.935 8.58377C24.8931 8.50382 24.8262 8.40984 24.7864 8.3749C24.7467 8.33998 24.6509 8.28571 24.5736 8.25432C24.4522 8.20509 24.1119 8.19726 22.088 8.19726C20.2581 8.19726 19.7345 8.18706 19.7044 8.15089C19.6831 8.1254 19.4776 7.78731 19.2476 7.39962C19.0177 7.01193 18.4711 6.09372 18.033 5.35914C17.5949 4.62457 17.0627 3.7314 16.8504 3.37432C16.6381 3.01723 16.1732 2.23291 15.8174 1.63138C15.3507 0.842381 15.117 0.484814 14.9784 0.34788C14.8447 0.215768 14.717 0.132665 14.5583 0.0745302C14.3719 0.00619278 14.2783 -0.00579043 14.044 0.00864131C13.8624 0.0198083 13.6895 0.0564625 13.5712 0.108884C13.4687 0.154331 13.3084 0.265816 13.215 0.356561C13.1215 0.447344 13.0092 0.600046 12.9653 0.695874C12.9163 0.802795 12.8791 0.977571 12.8689 1.14834C12.8562 1.36311 12.8692 1.46892 12.9259 1.61209C12.9664 1.71411 13.1943 2.12313 13.4325 2.52103C13.6707 2.91892 14.0801 3.60341 14.3423 4.04211C14.6045 4.48081 14.8568 4.90653 14.9029 4.98815C14.949 5.06977 15.266 5.604 15.6074 6.17533C15.9488 6.74667 16.3567 7.42845 16.5138 7.69041C16.6709 7.95237 16.7922 8.17367 16.7835 8.18216C16.7748 8.19062 14.8419 8.19333 12.4882 8.18814L8.20874 8.17871L8.35209 7.93757C8.43095 7.80493 8.68458 7.37922 8.91571 6.99153C9.14685 6.60384 9.59878 5.84422 9.91992 5.30349C10.2411 4.76277 10.659 4.06159 10.8487 3.74531C11.0384 3.42904 11.3731 2.86976 11.5925 2.50248C11.8119 2.13519 12.0262 1.75956 12.0687 1.66773C12.121 1.55488 12.147 1.41668 12.1491 1.24109C12.151 1.0783 12.126 0.907527 12.082 0.783429C12.033 0.645011 11.9471 0.521284 11.7964 0.371995C11.6407 0.217661 11.5198 0.136301 11.36 0.0783887C11.2172 0.0265977 11.0551 -0.00111568 10.9018 3.44075e-05C10.7713 0.000998997 10.5873 0.0280444 10.4929 0.0601356ZM6.01532 9.25601C6.09261 9.2874 6.18841 9.34167 6.22817 9.37658C6.26792 9.41153 6.33482 9.5055 6.37678 9.58545C6.43586 9.69787 6.44972 9.78301 6.43803 9.96127C6.4262 10.1418 6.4 10.2209 6.31721 10.3264C6.2591 10.4004 6.14446 10.4942 6.06252 10.5349C5.97805 10.5768 5.83787 10.6087 5.73893 10.6087C5.64289 10.6087 5.50722 10.5855 5.43738 10.5572C5.36757 10.5289 5.26333 10.4579 5.2057 10.3995C5.14812 10.3411 5.07694 10.2397 5.0475 10.174C5.01806 10.1083 4.99412 9.99982 4.99423 9.93286C4.99435 9.86589 5.01138 9.75177 5.03211 9.67932C5.05285 9.60682 5.12578 9.49167 5.19417 9.42344C5.2626 9.35522 5.37013 9.27745 5.43314 9.25063C5.49615 9.22381 5.62128 9.20121 5.71121 9.2004C5.80114 9.19962 5.93799 9.22462 6.01532 9.25601ZM19.5924 9.25909C19.6596 9.29215 19.7465 9.34639 19.7855 9.37966C19.8245 9.4129 19.8889 9.50205 19.9287 9.57774C19.9715 9.65936 20.001 9.7921 20.001 9.90384C20.001 10.0156 19.9715 10.1483 19.9287 10.2299C19.8889 10.3056 19.8245 10.3948 19.7855 10.428C19.7465 10.4613 19.6596 10.5155 19.5924 10.5486C19.5252 10.5817 19.3888 10.6087 19.2894 10.6087C19.1857 10.6087 19.0425 10.5771 18.9534 10.5345C18.868 10.4936 18.7482 10.3912 18.6871 10.307C18.6149 10.2075 18.5698 10.092 18.5585 9.97749C18.5489 9.88051 18.5606 9.74361 18.5845 9.67319C18.6085 9.60282 18.6835 9.48992 18.7512 9.42229C18.8191 9.3547 18.9261 9.27745 18.9891 9.25063C19.0521 9.22381 19.1861 9.20121 19.2869 9.2004C19.3877 9.19962 19.5252 9.226 19.5924 9.25909ZM6.35357 12.6964C6.36521 12.7077 6.39855 13.0565 6.42765 13.4715C6.45675 13.8864 6.49146 14.3387 6.50486 14.4764L6.52918 14.7268H4.79021H3.05123L3.0303 14.5691C3.01877 14.4824 2.9828 14.0309 2.95038 13.5658C2.91792 13.1007 2.89902 12.7081 2.90834 12.6934C2.91769 12.6787 3.69195 12.6688 4.62887 12.6712C5.5658 12.6737 6.34192 12.6851 6.35357 12.6964ZM11.7439 13.7083L11.7541 14.7268H9.88624H8.01843L7.99582 14.4764C7.98341 14.3387 7.95592 13.9672 7.93476 13.6509C7.91361 13.3346 7.8873 12.984 7.8763 12.8718L7.85629 12.6678L9.79502 12.6788L11.7338 12.6898L11.7439 13.7083ZM17.1227 12.6971C17.1345 12.7086 17.1124 13.1657 17.0736 13.7131L17.0031 14.7082L15.1226 14.7178L13.2421 14.7275V13.7131C13.2421 13.1552 13.2493 12.6917 13.2581 12.6832C13.2669 12.6747 14.1352 12.6697 15.1877 12.6721C16.2403 12.6745 17.111 12.6858 17.1227 12.6971ZM21.93 12.6813L22.1216 12.6863L22.053 13.6602C22.0152 14.1958 21.9768 14.6549 21.9676 14.6804C21.9545 14.7166 21.5726 14.7268 20.2313 14.7268H18.5117L18.5116 14.5691C18.5116 14.4824 18.5386 14.0358 18.5716 13.5767C18.6046 13.1176 18.6368 12.7253 18.6432 12.7049C18.6507 12.6808 19.1981 12.6692 20.1966 12.672C21.0446 12.6744 21.8246 12.6785 21.93 12.6813ZM6.66875 16.7951C6.69353 17.1369 6.72466 17.5793 6.73795 17.7782L6.76208 18.14H5.01886H3.27565L3.27309 18.0008C3.27168 17.9243 3.24105 17.4819 3.205 17.0177L3.13944 16.1737H4.88158H6.62373L6.66875 16.7951ZM11.7529 17.1572V18.1407L10.0059 18.131L8.25888 18.1214L8.19519 17.2867C8.16013 16.8276 8.13004 16.3893 8.12836 16.3128L8.12523 16.1737H9.93905H11.7529V17.1572ZM16.8848 16.3128C16.876 16.3893 16.8433 16.8153 16.8121 17.2594C16.7808 17.7035 16.7552 18.0833 16.7552 18.1034C16.7552 18.1269 16.127 18.14 14.9987 18.14H13.2421V17.1568V16.1737H15.0714H16.9007L16.8848 16.3128ZM21.8573 16.387C21.8451 16.5043 21.8168 16.8925 21.7945 17.2496C21.7722 17.6066 21.7453 17.953 21.7349 18.0194L21.7159 18.14H19.9771H18.2384L18.2605 17.9081C18.2727 17.7806 18.3002 17.4091 18.3217 17.0826C18.3432 16.7561 18.37 16.418 18.3813 16.3313L18.4019 16.1737H20.1407H21.8796L21.8573 16.387ZM6.99467 19.9662C7.03366 20.1748 7.12076 20.5296 7.18823 20.7545C7.25574 20.9795 7.34808 21.2518 7.39344 21.3595L7.47592 21.5555L5.89339 21.545L4.31082 21.5346L4.17175 21.4047C4.09526 21.3333 3.99594 21.2081 3.95107 21.1265C3.90621 21.0449 3.83071 20.8884 3.78336 20.7788C3.73597 20.6693 3.64532 20.3792 3.5819 20.1344C3.51847 19.8895 3.46657 19.6662 3.46657 19.638C3.46657 19.5953 3.75121 19.5868 5.19517 19.5868H6.92379L6.99467 19.9662ZM11.7529 20.57V21.5531H10.587C9.66583 21.5531 9.39384 21.5421 9.29123 21.5004C9.2186 21.4709 9.10156 21.3687 9.02565 21.2685C8.95104 21.17 8.83621 20.9558 8.77049 20.7926C8.70481 20.6293 8.6124 20.3455 8.56517 20.1619C8.51793 19.9782 8.46879 19.7737 8.45596 19.7074L8.43263 19.5868H10.0928H11.7529V20.57ZM16.5639 19.6332C16.5637 19.6587 16.5222 19.8571 16.4715 20.074C16.4209 20.291 16.3329 20.5831 16.2761 20.7233C16.2193 20.8634 16.1379 21.0365 16.0952 21.1079C16.0525 21.1793 15.973 21.2852 15.9186 21.3431C15.8642 21.401 15.7733 21.472 15.7166 21.5008C15.6342 21.5425 15.3741 21.5531 14.4278 21.5531H13.2421V20.57V19.5868H14.9032C16.2068 19.5868 16.5642 19.5968 16.5639 19.6332ZM21.5284 19.6771C21.5284 19.7267 21.4764 19.9646 21.4128 20.2057C21.3491 20.4469 21.2363 20.7692 21.1621 20.9221C21.0878 21.0749 20.9843 21.2544 20.9321 21.3209C20.8799 21.3875 20.7873 21.4669 20.7264 21.4975C20.6335 21.5442 20.3702 21.5531 19.082 21.5531C17.6381 21.5531 17.5495 21.5493 17.5708 21.4882C17.5833 21.4525 17.6556 21.2495 17.7315 21.0371C17.8075 20.8246 17.9196 20.4156 17.9805 20.1281C18.0415 19.8406 18.0915 19.6012 18.0916 19.5961C18.0916 19.591 18.865 19.5868 19.8101 19.5868H21.5284V19.6771Z" fill="white"/>
</svg>
