<svg width="41" height="36" viewBox="0 0 41 36" fill="none" xmlns="http://www.w3.org/2000/svg">
<path fill-rule="evenodd" clip-rule="evenodd" d="M17.4552 0.58899C17.3062 0.637743 17.0676 0.752553 16.9251 0.844198C16.7827 0.935787 16.5753 1.14202 16.4644 1.30242C16.3535 1.46277 15.8553 2.25348 15.3574 3.05946C14.8593 3.86544 13.7127 5.71694 12.8093 7.1739C11.9058 8.63087 10.8616 10.3175 10.4887 10.922C10.1158 11.5265 9.67951 12.2303 9.51921 12.486L9.22774 12.951H5.4993C2.50433 12.951 1.73256 12.966 1.57588 13.0272C1.46865 13.0691 1.29436 13.1955 1.18852 13.308C1.08274 13.4206 0.964354 13.6122 0.925455 13.7336C0.885109 13.8594 0.871659 14.0601 0.894154 14.2004C0.915865 14.3357 0.986305 14.5221 1.05077 14.6146C1.11518 14.7071 1.31125 14.8849 1.48644 15.0097C1.66158 15.1344 1.85619 15.334 1.91885 15.4531C2.01921 15.6439 2.03157 15.7916 2.02252 16.6917C2.01685 17.2538 2.03832 17.9457 2.07017 18.2294C2.10478 18.5378 2.17655 18.834 2.24862 18.966C2.3149 19.0874 2.47731 19.2738 2.60944 19.3802C2.74164 19.4866 2.90477 19.6116 2.97202 19.6581C3.08576 19.7368 3.105 19.8906 3.25082 21.8844C3.33694 23.0624 3.47439 24.9393 3.55616 26.0553C3.63794 27.1712 3.76001 28.5729 3.82737 29.1701C3.89474 29.7672 3.97621 30.3759 4.00854 30.5228C4.0408 30.6696 4.09273 30.9228 4.12397 31.0855C4.15521 31.2482 4.2485 31.6191 4.33125 31.9097C4.41405 32.2004 4.57332 32.6537 4.6852 32.9171C4.79713 33.1806 5.01731 33.589 5.17454 33.8247C5.33176 34.0604 5.61955 34.4021 5.81417 34.5839C6.044 34.7987 6.32275 34.985 6.60988 35.1156C6.85292 35.2261 7.19559 35.3443 7.37133 35.3781C7.59634 35.4214 11.5162 35.4396 20.6159 35.4396C29.1079 35.4396 33.6522 35.42 33.8657 35.3824C34.0443 35.3509 34.3805 35.2399 34.6127 35.1357C34.8448 35.0314 35.1521 34.8508 35.2955 34.7341C35.4389 34.6175 35.6922 34.3544 35.8584 34.1494C36.0247 33.9446 36.264 33.574 36.3902 33.326C36.5165 33.078 36.7014 32.6341 36.8014 32.3396C36.9012 32.0452 37.0542 31.4745 37.1413 31.0715C37.2285 30.6685 37.3259 30.1612 37.358 29.9443C37.39 29.7273 37.457 29.0805 37.5069 28.507C37.5568 27.9335 37.6375 26.9444 37.6863 26.3089C37.7351 25.6734 37.8576 24.0248 37.9584 22.6453C38.0592 21.2659 38.1566 20.0306 38.1747 19.9002C38.2035 19.6927 38.2391 19.647 38.4606 19.5331C38.6039 19.4595 38.7964 19.2876 38.9044 19.137C39.0094 18.9906 39.1247 18.7424 39.1608 18.5854C39.1972 18.4262 39.2262 17.7191 39.2262 16.987C39.2262 15.7331 39.2323 15.6635 39.3619 15.4379C39.4365 15.3079 39.6309 15.1074 39.7938 14.9922C39.9567 14.877 40.1454 14.7128 40.2131 14.6272C40.2971 14.5211 40.3441 14.3583 40.3606 14.1153C40.3795 13.838 40.3581 13.7101 40.2643 13.5382C40.198 13.4168 40.0923 13.274 40.0296 13.2209C39.9668 13.1679 39.8155 13.0854 39.6934 13.0377C39.5017 12.9629 38.9642 12.951 35.7679 12.951C32.8778 12.951 32.0509 12.9355 32.0032 12.8806C31.9696 12.8419 31.6451 12.3282 31.2819 11.7392C30.9188 11.1503 30.0555 9.75529 29.3636 8.63932C28.6717 7.52335 27.8312 6.16643 27.4959 5.62394C27.1605 5.08146 26.4263 3.8899 25.8644 2.97604C25.1274 1.77739 24.7582 1.23417 24.5393 1.02614C24.3282 0.825429 24.1264 0.699178 23.8759 0.610858C23.5814 0.507039 23.4336 0.488834 23.0636 0.510759C22.7767 0.527724 22.5037 0.58341 22.3169 0.66305C22.155 0.732093 21.9018 0.901462 21.7543 1.03932C21.6067 1.17724 21.4293 1.40923 21.3599 1.55481C21.2826 1.71725 21.2238 1.98277 21.2077 2.24221C21.1876 2.56849 21.2081 2.72923 21.2977 2.94674C21.3617 3.10173 21.7216 3.72313 22.0978 4.32761C22.474 4.9321 23.1206 5.97198 23.5347 6.63846C23.9489 7.30495 24.3473 7.9517 24.4201 8.0757C24.4929 8.1997 24.9935 9.01131 25.5328 9.87929C26.0719 10.7473 26.7161 11.783 26.9642 12.181C27.2123 12.579 27.4039 12.9152 27.3902 12.9281C27.3764 12.9409 24.3237 12.9451 20.6064 12.9372L13.8477 12.9229L14.0741 12.5565C14.1987 12.355 14.5992 11.7082 14.9643 11.1193C15.3293 10.5303 16.0431 9.37626 16.5503 8.55478C17.0575 7.7333 17.7176 6.66805 18.0171 6.18756C18.3167 5.70708 18.8453 4.85742 19.1918 4.29943C19.5384 3.74144 19.8768 3.17078 19.9439 3.03128C20.0265 2.85982 20.0676 2.64988 20.0709 2.38311C20.074 2.1358 20.0345 1.87636 19.965 1.68783C19.8875 1.47754 19.7518 1.28957 19.5139 1.06277C19.268 0.828304 19.077 0.704702 18.8247 0.61672C18.5991 0.538039 18.3431 0.495936 18.101 0.497683C17.895 0.499149 17.6043 0.540237 17.4552 0.58899ZM10.3835 14.5595C10.5056 14.6072 10.6569 14.6896 10.7197 14.7427C10.7825 14.7958 10.8881 14.9385 10.9544 15.06C11.0477 15.2308 11.0696 15.3601 11.0512 15.6309C11.0325 15.9051 10.9911 16.0254 10.8603 16.1856C10.7686 16.2981 10.5875 16.4406 10.4581 16.5024C10.3247 16.566 10.1033 16.6146 9.94704 16.6146C9.79536 16.6146 9.58109 16.5794 9.47078 16.5363C9.36054 16.4932 9.1959 16.3854 9.10489 16.2968C9.01395 16.208 8.90153 16.0539 8.85503 15.9541C8.80854 15.8544 8.77072 15.6895 8.77091 15.5878C8.77109 15.486 8.79798 15.3127 8.83073 15.2026C8.86348 15.0925 8.97867 14.9175 9.08668 14.8139C9.19475 14.7102 9.36458 14.5921 9.46409 14.5513C9.5636 14.5106 9.76123 14.4763 9.90325 14.475C10.0453 14.4738 10.2614 14.5118 10.3835 14.5595ZM31.8264 14.5642C31.9326 14.6144 32.0698 14.6968 32.1313 14.7474C32.1929 14.7979 32.2947 14.9333 32.3575 15.0483C32.4252 15.1723 32.4717 15.3739 32.4717 15.5437C32.4717 15.7135 32.4252 15.9151 32.3575 16.0391C32.2947 16.1541 32.1929 16.2895 32.1313 16.34C32.0698 16.3906 31.9326 16.473 31.8264 16.5232C31.7202 16.5735 31.5049 16.6146 31.3479 16.6146C31.1841 16.6146 30.9579 16.5664 30.8172 16.5017C30.6824 16.4396 30.4931 16.2841 30.3966 16.1561C30.2826 16.005 30.2114 15.8295 30.1936 15.6556C30.1784 15.5082 30.1969 15.3003 30.2346 15.1933C30.2725 15.0864 30.3909 14.9149 30.4979 14.8121C30.6051 14.7094 30.774 14.5921 30.8735 14.5513C30.9731 14.5106 31.1847 14.4763 31.3439 14.475C31.5031 14.4738 31.7202 14.5139 31.8264 14.5642ZM10.9178 19.7861C10.9362 19.8033 10.9888 20.3332 11.0348 20.9637C11.0807 21.5941 11.1355 22.2811 11.1567 22.4903L11.1951 22.8708H8.44868H5.70224L5.66919 22.6312C5.65097 22.4995 5.59416 21.8136 5.54296 21.107C5.4917 20.4004 5.46185 19.804 5.47656 19.7817C5.49134 19.7594 6.71415 19.7442 8.19387 19.748C9.6736 19.7518 10.8994 19.7689 10.9178 19.7861ZM19.431 21.3235L19.447 22.8708H16.4971H13.5471L13.5114 22.4903C13.4918 22.2811 13.4484 21.7168 13.415 21.2363C13.3816 20.7558 13.34 20.2232 13.3227 20.0527L13.2911 19.7427L16.353 19.7594L19.415 19.7761L19.431 21.3235ZM27.926 19.7873C27.9445 19.8047 27.9096 20.4992 27.8484 21.3307L27.737 22.8426L24.7671 22.8572L21.7971 22.8719V21.3307C21.7971 20.4832 21.8085 19.7791 21.8224 19.7662C21.8362 19.7533 23.2076 19.7456 24.8699 19.7493C26.5322 19.7529 27.9075 19.77 27.926 19.7873ZM35.5182 19.7633L35.8208 19.7709L35.7125 21.2504C35.6529 22.0641 35.5923 22.7616 35.5777 22.8003C35.557 22.8553 34.9538 22.8708 32.8354 22.8708H30.1197L30.1195 22.6312C30.1194 22.4995 30.162 21.821 30.2142 21.1236C30.2664 20.4261 30.3173 19.83 30.3273 19.799C30.3392 19.7625 31.2036 19.7449 32.7807 19.7492C34.1199 19.7527 35.3519 19.759 35.5182 19.7633ZM11.4155 26.013C11.4547 26.5322 11.5038 27.2044 11.5248 27.5066L11.5629 28.0561H8.8098H6.05667L6.05263 27.8448C6.0504 27.7285 6.00203 27.0564 5.9451 26.3512L5.84155 25.0689H8.593H11.3444L11.4155 26.013ZM19.4451 26.5631V28.0572L16.686 28.0426L13.9269 28.0279L13.8263 26.7598C13.7709 26.0623 13.7234 25.3965 13.7208 25.2803L13.7158 25.0689H16.5805H19.4451V26.5631ZM27.5501 25.2803C27.5363 25.3965 27.4846 26.0436 27.4353 26.7184C27.3859 27.393 27.3455 27.97 27.3455 28.0006C27.3455 28.0363 26.3534 28.0561 24.5713 28.0561H21.7971V26.5625V25.0689H24.6862H27.5753L27.5501 25.2803ZM35.4035 25.393C35.3842 25.5713 35.3395 26.1609 35.3042 26.7034C35.269 27.2459 35.2266 27.7722 35.2101 27.8729L35.1801 28.0561H32.434H29.6879L29.7229 27.7039C29.7421 27.5101 29.7856 26.9458 29.8195 26.4498C29.8535 25.9538 29.8959 25.4402 29.9137 25.3085L29.9462 25.0689H32.6924H35.4386L35.4035 25.393ZM11.9303 30.8305C11.9919 31.1475 12.1294 31.6865 12.236 32.0282C12.3426 32.37 12.4884 32.7836 12.5601 32.9473L12.6903 33.2451L10.191 33.2292L7.69157 33.2133L7.47192 33.016C7.35113 32.9075 7.19426 32.7173 7.1234 32.5933C7.05254 32.4693 6.93331 32.2316 6.85853 32.0652C6.78368 31.8987 6.64051 31.4581 6.54034 31.0861C6.44017 30.7141 6.35821 30.3747 6.35821 30.332C6.35821 30.267 6.80775 30.2542 9.08825 30.2542H11.8183L11.9303 30.8305ZM19.4451 31.7478V33.2414H17.6038C16.149 33.2414 15.7194 33.2246 15.5573 33.1614C15.4426 33.1165 15.2578 32.9613 15.1379 32.8091C15.0201 32.6594 14.8387 32.334 14.7349 32.086C14.6312 31.838 14.4852 31.4069 14.4106 31.1279C14.336 30.8489 14.2584 30.5382 14.2382 30.4374L14.2013 30.2542H16.8232H19.4451V31.7478ZM27.0434 30.3247C27.0431 30.3635 26.9774 30.6648 26.8974 30.9944C26.8174 31.3239 26.6786 31.7678 26.5889 31.9807C26.4992 32.1936 26.3706 32.4566 26.3031 32.5651C26.2357 32.6736 26.1102 32.8344 26.0242 32.9224C25.9383 33.0104 25.7947 33.1182 25.7051 33.1619C25.5751 33.2254 25.1643 33.2414 23.6697 33.2414H21.7971V31.7478V30.2542H24.4206C26.4794 30.2542 27.0438 30.2694 27.0434 30.3247ZM34.884 30.3913C34.884 30.4667 34.8018 30.8282 34.7014 31.1945C34.6009 31.5608 34.4227 32.0506 34.3055 32.2828C34.1882 32.515 34.0247 32.7877 33.9422 32.8887C33.8598 32.9898 33.7136 33.1105 33.6175 33.157C33.4706 33.2279 33.0548 33.2414 31.0203 33.2414C28.7399 33.2414 28.6 33.2356 28.6336 33.1428C28.6533 33.0886 28.7675 32.7801 28.8875 32.4574C29.0075 32.1347 29.1844 31.5133 29.2807 31.0766C29.377 30.6398 29.4559 30.2761 29.4561 30.2683C29.4562 30.2606 30.6775 30.2542 32.1702 30.2542H34.884V30.3913Z" fill="#393939"/>
</svg>
