<svg width="52" height="52" viewBox="0 0 52 52" fill="none" xmlns="http://www.w3.org/2000/svg">
<path d="M41.8817 11.639L43.2154 9.52843C43.6077 8.90757 43.8534 8.2318 43.923 7.53703C44.1613 5.15715 42.9221 3.06094 40.8072 2.12351C38.8586 1.25974 36.6907 1.60962 35.1146 3.03909L35.1143 3.03944L30.3822 7.32805L29.3673 8.24783L28.4431 7.23699C27.7701 6.50091 26.8083 6.04296 25.7417 6.04296C24.6731 6.04296 23.7098 6.50242 23.0367 7.24067L22.1126 8.2543L21.0963 7.33317L16.3587 3.03934C16.3586 3.03928 16.3585 3.03923 16.3585 3.03917C16.3584 3.03909 16.3583 3.03901 16.3582 3.03892C14.7788 1.60908 12.6118 1.26098 10.6644 2.12404L41.8817 11.639ZM41.8817 11.639H44.3783M41.8817 11.639H44.3783M44.3783 11.639H48.1259C49.2204 11.639 50.1078 12.5263 50.1079 13.6209C50.1079 13.6209 50.1079 13.6209 50.1079 13.6209V18.6573C50.1079 18.8247 49.9721 18.9605 49.8047 18.9605H1.67884C1.51146 18.9605 1.37568 18.8247 1.37568 18.6573V13.6209C1.37568 12.5263 2.26297 11.639 3.35758 11.639H7.09436H9.59134M44.3783 11.639H9.59134M9.59134 11.639L8.25722 9.52827M9.59134 11.639L8.25722 9.52827M8.25722 9.52827C7.86513 8.90794 7.61947 8.23253 7.54973 7.53818C7.31077 5.15861 8.5501 3.06166 10.6642 2.12413L8.25722 9.52827ZM20.7053 11.639H22.081V10.2633V9.72065L22.0812 9.71538C22.0815 9.70697 22.0819 9.69424 22.0822 9.67921L22.0935 9.05452L21.6306 8.63493L15.9524 3.4884L15.9517 3.48776C14.5033 2.17673 12.5518 1.91836 10.836 2.71144L10.8359 2.71145C9.57692 3.2934 8.59393 4.4412 8.26203 5.82444L8.26202 5.82451C7.52851 8.88223 9.85207 11.639 12.8075 11.639H20.7053ZM29.4025 10.2635V11.6392H30.7781H38.5098C40.8808 11.6392 43.149 9.88702 43.3326 7.32674C43.496 5.04705 42.1432 3.10603 39.9363 2.44773L39.9363 2.44772C38.2867 1.95571 36.5968 2.51269 35.4431 3.55838L35.443 3.55842L29.8528 8.62544L29.3948 9.0406L29.4011 9.65872C29.4013 9.67502 29.4016 9.68901 29.4019 9.69893L29.4025 9.71584V10.2635Z" stroke="#393939" stroke-width="2.75137"/>
<path d="M29.5352 23.4456H48.0674V49.3365C48.0674 50.7098 46.9541 51.823 45.5808 51.823H29.5352V23.4456Z" fill="#393939"/>
<path d="M23.165 23.4456H4.6328V49.3365C4.6328 50.7098 5.74608 51.823 7.11938 51.823H23.165V23.4456Z" fill="#393939"/>
</svg>
