<svg width="52" height="52" viewBox="0 0 52 52" fill="none" xmlns="http://www.w3.org/2000/svg">
<path fill-rule="evenodd" clip-rule="evenodd" d="M24.4376 0.608635C23.8954 0.797331 23.0714 1.3996 22.458 2.056C21.6447 2.92622 20.807 4.44017 18.7499 8.7583C16.7348 12.9877 15.9784 14.3605 15.6213 14.4358C15.3624 14.4902 12.7997 14.8994 9.92647 15.3447C7.05328 15.7901 4.33309 16.2587 3.88174 16.3861C3.43038 16.5135 2.56181 16.9322 1.95141 17.3162C1.14785 17.8222 0.71135 18.3067 0.369817 19.0733C0.0238731 19.849 -0.0636532 20.3863 0.0422197 21.0858C0.121392 21.6106 0.485675 22.558 0.851355 23.1912C1.24118 23.8662 3.30245 26.1002 5.83737 28.595C8.21417 30.934 10.1605 33.0076 10.1628 33.2029C10.1652 33.3983 9.734 36.3055 9.20487 39.6635C8.33258 45.2 8.2685 45.8912 8.51786 47.0796C8.66901 47.8005 9.02377 48.7337 9.3061 49.1532C9.58866 49.573 10.1833 50.0976 10.6276 50.319C11.072 50.5407 11.9188 50.7222 12.5092 50.7222C13.0999 50.7225 14.0402 50.5628 14.5988 50.3674C15.1577 50.172 17.6336 48.915 20.101 47.5741C23.0809 45.9546 24.6486 44.9717 24.7707 44.6462C24.872 44.3768 25.0294 43.6522 25.1206 43.0364L25.2864 41.9164L23.0684 39.6762C21.7847 38.3795 20.6547 37.0075 20.3854 36.4186C20.1188 35.8352 19.9203 34.9097 19.9203 34.2492C19.9203 33.6156 20.1156 32.6705 20.3543 32.1489C20.5929 31.6272 21.1448 30.9305 21.5806 30.6008C22.0164 30.2709 22.7403 29.8488 23.1891 29.6626C23.6382 29.4765 25.2316 29.1424 26.7303 28.92L29.4552 28.5157L30.6959 25.9253C31.3785 24.5008 32.2169 22.9705 32.5594 22.5251C32.9018 22.0795 33.7165 21.4507 34.3697 21.1277C35.0228 20.8047 35.8642 20.5404 36.2391 20.5404C36.6143 20.5404 37.3359 20.6637 37.8428 20.8144C38.3496 20.9651 39.2275 21.5353 39.7938 22.0814C40.5036 22.7659 41.2272 23.895 42.1228 25.7147L43.422 28.3549L44.4443 28.5072L45.4668 28.6592L47.7672 26.2702C49.0323 24.9563 50.3574 23.3628 50.7115 22.7292C51.2011 21.8533 51.3562 21.2639 51.3588 20.269C51.3618 19.1491 51.2594 18.8341 50.6469 18.0802C50.2534 17.5959 49.3671 16.914 48.6773 16.5647C47.6126 16.0255 46.5058 15.8021 41.3535 15.0851L35.284 14.2402L32.5566 8.74632C30.8036 5.21546 29.4914 2.87161 28.8835 2.18664C28.3637 1.6005 27.5162 0.930502 27.0006 0.69803C26.4847 0.465557 25.9061 0.277783 25.7145 0.280548C25.523 0.283313 24.9484 0.430997 24.4376 0.608635Z" fill="#393939"/>
<path d="M34.238 28.7525L34.238 28.7526C33.8275 29.6118 33.4436 30.4045 33.1555 30.9901C33.0118 31.2822 32.8898 31.527 32.7995 31.7041C32.7549 31.7915 32.7143 31.8697 32.681 31.9313C32.665 31.9608 32.645 31.9971 32.624 32.0327C32.614 32.0496 32.5969 32.078 32.5754 32.1105L32.5748 32.1114C32.5674 32.1228 32.499 32.2282 32.392 32.3344L32.392 32.3345C32.206 32.519 32.0072 32.6053 31.9798 32.6172C31.9787 32.6177 31.9778 32.618 31.9773 32.6183C31.9152 32.6461 31.8624 32.6645 31.8345 32.6739C31.7753 32.6937 31.7199 32.7086 31.6835 32.718C31.6053 32.7382 31.513 32.7588 31.4192 32.7787C31.227 32.8194 30.9664 32.8698 30.6611 32.926C30.0475 33.039 29.2196 33.1816 28.3238 33.3271C27.4599 33.4674 26.5876 33.6364 25.8834 33.7943C25.5307 33.8733 25.2295 33.9475 24.9975 34.0117C24.7719 34.0741 24.67 34.1115 24.6504 34.1187C24.6474 34.1198 24.6463 34.1202 24.647 34.1199M34.238 28.7525L29.7137 51.3824M34.238 28.7525C34.7339 27.7143 35.1451 26.9292 35.4835 26.364M34.238 28.7525L35.4835 26.364M24.647 34.1199C24.5527 34.1644 24.4171 34.251 24.2901 34.3585C24.2297 34.4096 24.1849 34.454 24.1566 34.4856C24.1551 34.4873 24.1538 34.4888 24.1525 34.4903C24.1484 34.5006 24.1433 34.5144 24.1373 34.5318C24.1203 34.5817 24.1024 34.6446 24.0867 34.7154C24.053 34.8665 24.0438 34.9853 24.0447 35.0348C24.0448 35.0348 24.047 35.0624 24.0594 35.1205C24.0732 35.1847 24.095 35.2646 24.1249 35.3531C24.1879 35.54 24.2648 35.7008 24.322 35.7916C24.3213 35.7906 24.3214 35.7907 24.3224 35.7921C24.3263 35.7978 24.3443 35.8238 24.3843 35.8752C24.4301 35.9341 24.4918 36.0098 24.5699 36.1021C24.7261 36.2866 24.9313 36.5176 25.1734 36.7809C25.6569 37.3068 26.2662 37.9382 26.8808 38.5439L25.9153 39.5237L26.8808 38.5439L29.1708 40.8004L29.6738 41.296L29.5643 41.9936L29.0143 45.4969C29.0142 45.497 29.0142 45.497 29.0142 45.4971C28.8667 46.4377 28.748 47.3684 28.6757 48.105C28.6395 48.4744 28.616 48.7834 28.6057 49.0146C28.599 49.1641 28.5998 49.2458 28.6 49.2782C28.6039 49.2891 28.6092 49.3035 28.6165 49.3213C28.6395 49.3778 28.6734 49.4483 28.7173 49.5256C28.811 49.6908 28.9119 49.82 28.975 49.8826L28.9752 49.8829C29.0559 49.9629 29.1098 50.0113 29.1426 50.039C29.1448 50.0391 29.1472 50.0391 29.1496 50.0392C29.2331 50.0404 29.3619 50.034 29.5832 50.0129M24.647 34.1199L24.0615 32.8756L24.6476 34.1196C24.6474 34.1197 24.6472 34.1198 24.647 34.1199ZM29.5832 50.0129L29.7137 51.3824M29.5832 50.0129C29.5831 50.0129 29.5831 50.0129 29.5831 50.0129L29.7137 51.3824M29.5832 50.0129C29.7613 49.9959 30.0937 49.9166 30.7028 49.6576C31.3006 49.4034 32.0875 49.0106 33.1559 48.4308L33.1559 48.4307L36.1777 46.791L36.8253 46.4396L37.4767 46.7839L40.4615 48.3614L39.8187 49.5777M29.7137 51.3824C30.4843 51.3089 31.65 50.8133 33.8121 49.6399L36.8339 48.0001L39.8187 49.5777M39.8187 49.5777L40.4615 48.3614M39.8187 49.5777C41.4607 50.4453 43.1502 51.2285 43.5737 51.3179C44.0348 51.4151 44.6213 51.3662 45.0358 51.1958C45.4165 51.0393 45.8797 50.62 46.0652 50.264C46.2507 49.9081 46.4038 49.2226 46.4054 48.7413C46.407 48.2598 46.176 46.4378 45.8925 44.6925L44.5346 44.9131M40.4615 48.3614L36.1185 25.4743C36.2356 25.3765 36.3831 25.286 36.523 25.2242C36.5806 25.1988 36.6276 25.1823 36.6614 25.1725C36.6856 25.1803 36.7238 25.1945 36.7764 25.2199C36.9075 25.2832 37.0765 25.3915 37.2593 25.5509L37.2595 25.5511C37.388 25.6629 37.6224 25.9359 37.9789 26.5194C38.3244 27.0849 38.7384 27.8642 39.2477 28.9151C39.6614 29.769 40.0516 30.5499 40.3481 31.1217C40.4953 31.4055 40.6249 31.6484 40.7251 31.8259C40.7732 31.9112 40.8259 32.0014 40.8763 32.079C40.8983 32.113 40.9414 32.1779 40.9975 32.2467C41.0224 32.2771 41.0828 32.3494 41.1713 32.4264C41.2155 32.4648 41.2982 32.5323 41.4144 32.5963C41.5039 32.6456 41.6994 32.7414 41.9687 32.7634C41.9756 32.7642 41.9854 32.7654 41.9985 32.767C42.0436 32.7727 42.1108 32.7816 42.2001 32.7936C42.3776 32.8176 42.6299 32.8525 42.9395 32.8961C43.558 32.9831 44.3981 33.1032 45.3101 33.2355L45.3103 33.2355C46.2009 33.3646 47.0761 33.517 47.7636 33.6571C48.1085 33.7274 48.3951 33.7923 48.6076 33.8473C48.771 33.8896 48.8445 33.9146 48.8597 33.9189C48.9201 33.954 49.0167 34.0197 49.1239 34.1101C49.1825 34.1594 49.2333 34.207 49.2727 34.2478C49.2936 34.2694 49.3079 34.2855 49.3166 34.2957C49.3187 34.3004 49.3213 34.3063 49.3243 34.3134C49.3407 34.3524 49.3608 34.4092 49.3801 34.48C49.4212 34.6312 49.4383 34.7704 49.4383 34.8483C49.4383 34.9203 49.421 35.0639 49.3754 35.2303C49.3542 35.3076 49.3312 35.3739 49.3104 35.4238C49.299 35.4514 49.2907 35.468 49.2869 35.4754C49.2864 35.4761 49.2857 35.4769 49.285 35.4779C49.2681 35.4992 49.2043 35.5796 49.0654 35.7383C48.9135 35.912 48.7108 36.1356 48.4697 36.3951C47.9884 36.9131 47.3716 37.5554 46.738 38.194L44.4 40.5505L43.9062 41.0482L44.0187 41.7402L44.5346 44.9131M40.4615 48.3614C41.2635 48.7852 42.0749 49.1871 42.7316 49.4915C43.0607 49.644 43.3423 49.768 43.5596 49.8568C43.7253 49.9245 43.8157 49.9558 43.8492 49.9674C43.8666 49.9734 43.8686 49.9741 43.8579 49.9718C44.0637 50.0151 44.3673 49.9831 44.5122 49.9236C44.5055 49.9264 44.5246 49.9187 44.5657 49.8911C44.606 49.8642 44.6529 49.8279 44.7006 49.7848C44.7482 49.7416 44.788 49.6995 44.8169 49.6643C44.835 49.6422 44.8444 49.6284 44.8474 49.6238C44.8497 49.6189 44.8538 49.6099 44.8594 49.5962C44.8682 49.5746 44.8789 49.5459 44.8908 49.5101C44.9149 49.4375 44.9396 49.3486 44.9617 49.2498C45.008 49.0422 45.0293 48.8525 45.0297 48.7367C45.0302 48.6028 44.9871 48.1216 44.8911 47.3637C44.8003 46.6469 44.674 45.7711 44.5346 44.9133M40.4615 48.3614L44.5346 44.9133M44.5346 44.9131C44.5346 44.9131 44.5346 44.9132 44.5346 44.9133M44.5346 44.9131L44.5346 44.9133M35.4835 26.364C35.843 25.7635 36.0525 25.5295 36.1183 25.4744L35.4835 26.364ZM41.9577 32.7621C41.9587 32.7622 41.9599 32.7623 41.9615 32.7625C41.9416 32.7607 41.9368 32.7598 41.9577 32.7621ZM49.2897 35.4721L49.2894 35.4724L49.2897 35.4721Z" stroke="#393939" stroke-width="2.75137"/>
</svg>
