<svg width="49" height="65" viewBox="0 0 49 65" fill="none" xmlns="http://www.w3.org/2000/svg">
<path fill-rule="evenodd" clip-rule="evenodd" d="M8.59569 0.147214C8.46441 0.22797 8.29734 0.405665 8.22435 0.54204C8.13034 0.717853 8.09352 0.945974 8.09776 1.32658C8.10336 1.82466 8.13877 1.93831 8.59033 2.90709C8.85797 3.48126 9.52043 4.91622 10.0625 6.09595C10.6046 7.27569 11.2666 8.69815 11.5337 9.25698C11.8008 9.8158 12.1457 10.5609 12.3 10.9127C12.4543 11.2646 12.8559 12.1258 13.1925 12.8264C13.5291 13.5271 13.8706 14.2694 13.9512 14.476C14.0319 14.6826 14.4984 15.6473 14.9879 16.6197C15.4773 17.5921 15.9368 18.4535 16.009 18.534C16.0812 18.6145 16.2825 18.7646 16.4565 18.8675C16.658 18.9867 16.893 19.0565 17.1041 19.0598C17.2996 19.0627 17.5157 19.0117 17.6312 18.9352C17.739 18.8639 17.8922 18.6526 17.9716 18.4656C18.059 18.2596 18.116 17.9535 18.116 17.6896C18.116 17.4499 18.0694 17.1204 18.0124 16.9574C17.9555 16.7944 17.8346 16.4938 17.7439 16.2894C17.6531 16.0849 17.3188 15.3589 17.001 14.6759C16.6831 13.9929 16.2778 13.1123 16.1001 12.719C15.9225 12.3258 15.585 11.6079 15.35 11.1239C15.1151 10.6397 14.8986 10.1655 14.8689 10.0702C14.8391 9.97475 14.5176 9.28159 14.1543 8.52979C13.791 7.77807 13.4938 7.14097 13.4938 7.1141C13.4938 7.08731 13.1058 6.2461 12.6315 5.24474C12.1572 4.24345 11.6456 3.15319 11.4945 2.82204C11.3435 2.49089 11.0544 1.90542 10.8521 1.52105C10.6497 1.13669 10.3696 0.687071 10.2296 0.52187C10.0895 0.356669 9.87932 0.171599 9.76242 0.110636C9.6456 0.0495983 9.38892 -0.000150184 9.19218 3.40687e-07C8.9689 0.000150866 8.74457 0.055544 8.59569 0.147214ZM32.5379 0.105594C32.4129 0.160535 32.2232 0.310307 32.1165 0.438404C32.0098 0.566501 31.6874 1.08747 31.4001 1.59609C31.1128 2.10479 30.7924 2.70726 30.688 2.93493C30.5836 3.1626 30.3484 3.68756 30.1653 4.1015C29.9822 4.51544 29.6 5.36215 29.316 5.98306C29.0319 6.60398 28.4925 7.74691 28.1172 8.52302C27.7419 9.29905 27.4349 9.9649 27.4349 10.0027C27.4349 10.0405 27.2614 10.4555 27.0493 10.9248C26.7593 11.5667 26.656 11.8902 26.6326 12.2298C26.6042 12.6421 26.6219 12.7098 26.8365 13.0071C26.9657 13.1862 27.1857 13.3809 27.3253 13.4398C27.4649 13.4988 27.639 13.5467 27.7121 13.5465C27.7851 13.5463 27.9717 13.5106 28.1265 13.4672C28.2814 13.4237 28.5218 13.2874 28.6607 13.1643C28.7998 13.041 29.1482 12.5103 29.4362 11.9831C29.7238 11.4564 30.1755 10.5176 30.4399 9.89671C30.7043 9.27579 31.0966 8.39522 31.3116 7.93988C31.5265 7.48455 32.0144 6.45157 32.3958 5.64438C32.7772 4.83719 33.3283 3.64067 33.6206 2.98543C33.9128 2.3302 34.1883 1.61062 34.233 1.38641C34.3013 1.04299 34.2935 0.924223 34.1834 0.633334C34.0991 0.410481 33.9699 0.237002 33.8191 0.144128C33.6616 0.0471899 33.4516 0.00112928 33.1753 0.00293558C32.9498 0.00436556 32.663 0.0505767 32.5379 0.105594ZM20.3898 3.47434C20.3078 3.5201 20.1608 3.62915 20.0631 3.71668C19.9654 3.80414 19.8064 4.04505 19.7097 4.25203C19.5983 4.49053 19.5339 4.76614 19.5338 5.00465C19.5337 5.21162 19.5849 5.78738 19.6477 6.28411C19.7105 6.78084 19.7908 7.49207 19.8264 7.86462C19.8619 8.23717 19.9464 8.96533 20.0143 9.48276C20.0821 10.0002 20.2375 10.9232 20.3597 11.534C20.4818 12.1446 20.6432 12.7881 20.7184 12.964C20.7936 13.1397 20.9257 13.3473 21.0119 13.4252C21.1222 13.5247 21.3187 13.5764 21.6739 13.5992C22.0932 13.6263 22.2209 13.6051 22.4256 13.4749C22.5645 13.3865 22.7348 13.179 22.8154 12.9997C22.8941 12.8246 22.9593 12.5666 22.9602 12.4261C22.9611 12.2858 22.8949 11.5407 22.8133 10.7704C22.7316 10.0001 22.6315 9.06506 22.5911 8.69251C22.5505 8.31996 22.4817 7.5918 22.4381 7.07437C22.3945 6.55694 22.309 5.81447 22.2481 5.42446C22.1871 5.03438 22.0694 4.56023 21.9865 4.37079C21.9035 4.18128 21.7451 3.93005 21.6345 3.81257C21.5239 3.69501 21.3429 3.55111 21.2322 3.4927C21.1214 3.4343 20.9201 3.38756 20.7849 3.38877C20.6496 3.39005 20.4718 3.42858 20.3898 3.47434ZM40.5932 6.80545C40.3472 6.86288 40.049 6.94777 39.9307 6.99414C39.8124 7.0405 39.4434 7.27185 39.1107 7.50833C38.778 7.74473 38.0696 8.32448 37.5366 8.7966C37.0036 9.26872 33.4307 12.8103 29.5969 16.6666C23.8965 22.4007 22.5003 23.7667 21.9348 24.1632C21.5545 24.43 20.9339 24.8095 20.5556 25.0068C20.1774 25.204 19.5492 25.4712 19.1597 25.6005C18.5512 25.8025 18.3355 25.8368 17.6286 25.844C16.9473 25.8509 16.7699 25.8286 16.5968 25.7145C16.4819 25.6386 16.1644 25.23 15.8914 24.8063C15.6183 24.3827 15.2481 23.7606 15.0685 23.4238C14.8891 23.0871 14.5122 22.5135 14.231 22.1494C13.9497 21.7852 13.6298 21.3516 13.5201 21.1861C13.4104 21.0205 12.9152 20.4748 12.4194 19.9735C11.8068 19.354 11.351 18.9647 10.9963 18.758C10.6061 18.5307 10.2294 18.3952 9.50306 18.2207C8.96882 18.0924 8.39851 17.9877 8.23569 17.9881C8.07294 17.9885 7.58209 18.0707 7.14507 18.1708C6.70798 18.2709 6.13796 18.4592 5.87822 18.5893C5.61856 18.7193 5.2716 18.9311 5.10729 19.0598C4.94298 19.1886 4.59885 19.5334 4.34261 19.8261C4.08631 20.1187 3.74054 20.621 3.57429 20.9422C3.40796 21.2634 3.22285 21.7638 3.16291 22.0541C3.08039 22.4536 3.07151 22.6925 3.12646 23.0368C3.16873 23.3017 3.35116 23.812 3.56296 24.2581C3.76313 24.6796 4.09168 25.2833 4.29319 25.5995C4.49463 25.9159 4.75183 26.3392 4.86477 26.5403C4.97772 26.7415 5.2549 27.1939 5.48079 27.5457C5.70668 27.8976 6.05349 28.5242 6.2515 28.9381C6.44951 29.352 6.75547 30.1141 6.93141 30.6315C7.10728 31.1489 7.31542 31.7924 7.39393 32.0615C7.47243 32.3306 7.58537 32.8216 7.64494 33.1528C7.72315 33.5879 7.75319 34.3537 7.75326 35.9138C7.75326 37.1376 7.7218 38.1565 7.6805 38.2661C7.64039 38.3725 7.2654 38.8404 6.84709 39.3059C6.42878 39.7714 4.99091 41.2698 3.65182 42.6359C2.31266 44.0019 1.07473 45.3038 0.900729 45.529C0.726801 45.7542 0.499047 46.1098 0.3946 46.3193C0.290228 46.5287 0.158645 46.7271 0.102359 46.7602C0.02162 46.8077 0 47.1054 0 48.1714C0 48.9873 0.0284039 49.5224 0.0717927 49.5224C0.111305 49.5224 0.279642 49.952 0.445966 50.4771C0.612216 51.0023 0.870909 51.7219 1.02076 52.0765C1.17061 52.431 1.44302 53.0089 1.62611 53.3608C1.80921 53.7126 2.24653 54.4069 2.59797 54.9036C2.9494 55.4004 3.60732 56.2638 4.05999 56.8223C4.51274 57.3808 5.13472 58.1051 5.44225 58.4319C5.74977 58.7587 6.37041 59.3472 6.82145 59.7396C7.27248 60.132 7.90542 60.6439 8.22793 60.8771C8.55044 61.1101 9.09079 61.5067 9.42866 61.7582C9.76652 62.0097 10.6433 62.5231 11.377 62.8991C12.1107 63.2751 12.8955 63.6365 13.121 63.7023C13.3466 63.768 14.0101 63.9065 14.5955 64.0102C15.1809 64.1138 15.9035 64.1985 16.2013 64.1985C16.4991 64.1985 16.9353 64.1479 17.1707 64.086C17.4061 64.0241 17.7326 63.9045 17.8963 63.8202C18.0599 63.7359 18.7151 63.1727 19.3521 62.5687C19.9892 61.9647 21.5735 60.4149 22.8729 59.1247C24.1725 57.8344 25.343 56.7029 25.4743 56.6102C25.6055 56.5174 25.8739 56.3909 26.0707 56.329C26.2674 56.2671 26.7304 56.2002 27.0994 56.1802C27.4684 56.1604 28.2568 56.074 28.8514 55.9883C29.4459 55.9027 30.1653 55.7835 30.45 55.7236C30.7346 55.6636 31.3217 55.5108 31.7546 55.384C32.1875 55.2572 32.9946 54.9676 33.5481 54.7404C34.1016 54.5132 34.8665 54.1603 35.2476 53.9561C35.6288 53.7518 36.2662 53.3666 36.6641 53.1C37.062 52.8335 37.6379 52.4021 37.9439 52.1413C38.25 51.8806 39.1726 51.0184 39.9941 50.2252C40.8157 49.432 42.7312 47.5184 44.2508 45.9728C45.7705 44.4273 47.2408 42.8748 47.5181 42.523C47.7954 42.1711 48.1018 41.7271 48.199 41.5364C48.2961 41.3456 48.4279 40.9624 48.4916 40.685C48.5553 40.4075 48.6075 39.9398 48.6075 39.6457C48.6075 39.3516 48.5697 38.8879 48.5235 38.6155C48.4773 38.343 48.3438 37.9052 48.2267 37.6425C48.1097 37.3798 47.8632 36.9517 47.679 36.6911C47.4949 36.4305 47.1839 36.0747 46.988 35.9003C46.7921 35.726 46.4977 35.5153 46.3337 35.432C46.1696 35.3487 45.9264 35.198 45.7931 35.0971C45.6598 34.9962 45.493 34.8053 45.4226 34.6729C45.3231 34.4862 45.284 34.1539 45.2477 33.1904C45.2096 32.1749 45.1701 31.8595 45.0314 31.4594C44.938 31.1903 44.7576 30.767 44.6305 30.5186C44.5033 30.2702 44.18 29.8431 43.912 29.5692C43.6439 29.2955 43.1566 28.9009 42.829 28.6924C42.5013 28.484 42.1416 28.2218 42.0297 28.1098C41.9176 27.9977 41.792 27.7826 41.7505 27.6318C41.709 27.481 41.6742 27.1036 41.6732 26.7931C41.6721 26.4827 41.6386 25.9916 41.5987 25.7018C41.5466 25.3226 41.4193 24.9536 41.1444 24.3847C40.7978 23.6674 40.6923 23.525 40.0004 22.8418C39.5811 22.4279 39.1991 22.0152 39.1515 21.9248C39.1039 21.8344 39.0649 21.6588 39.0649 21.5346C39.0649 21.4104 39.0988 21.2188 39.1402 21.1089C39.1816 20.9988 40.4879 19.5996 42.043 17.9993C43.5982 16.3991 45.0018 14.9273 45.1621 14.7287C45.3224 14.5302 45.6058 14.0729 45.7918 13.7127C45.9777 13.3525 46.1755 12.8715 46.2311 12.6438C46.2889 12.4077 46.329 11.8741 46.3246 11.402C46.3202 10.9266 46.2704 10.4092 46.2077 10.1871C46.1478 9.97415 45.9503 9.53771 45.7688 9.21716C45.5875 8.89655 45.3084 8.48426 45.1488 8.30092C44.9891 8.11758 44.6033 7.79365 44.2915 7.58111C43.9795 7.36857 43.4895 7.09408 43.2025 6.97111C42.7493 6.77693 42.5728 6.74449 41.8606 6.72432C41.3451 6.70972 40.8744 6.73982 40.5932 6.80545ZM42.2156 9.60123C42.4049 9.66633 42.7111 9.86171 42.8958 10.0354C43.0805 10.209 43.2999 10.5029 43.3832 10.6884C43.4768 10.8968 43.5353 11.1873 43.5363 11.4489C43.5372 11.6818 43.4879 12.0155 43.4267 12.1906C43.3655 12.3657 43.1661 12.734 42.9836 13.0091C42.7544 13.3546 40.6045 15.5724 36.0311 20.1811C32.3898 23.8505 29.0709 27.2035 28.656 27.6321C28.2356 28.0661 27.7095 28.7091 27.4682 29.0836C27.2252 29.4607 26.9359 30.0389 26.8093 30.4007C26.6092 30.972 26.5838 31.1397 26.5863 31.8733C26.5887 32.6138 26.6127 32.7619 26.8141 33.2754C26.9379 33.5912 27.2607 34.1909 27.5314 34.6081C27.838 35.0804 28.1447 35.4556 28.3443 35.6027C28.5207 35.7325 28.8661 35.9419 29.112 36.0679C29.3578 36.1939 29.7268 36.3567 29.9321 36.4296C30.1372 36.5026 30.4927 36.6475 30.722 36.7517C30.9513 36.8559 31.2224 37.0413 31.3245 37.1638C31.4266 37.2863 31.6173 37.704 31.7483 38.092C31.8793 38.48 32.0404 38.8991 32.1063 39.0233C32.1723 39.1474 32.4095 39.4942 32.6334 39.7938C32.8574 40.0933 33.1967 40.4685 33.3875 40.6276C33.5784 40.7865 33.9205 41.0395 34.1477 41.1899C34.4051 41.3602 34.6296 41.5851 34.7429 41.7861C34.9029 42.0704 34.9266 42.2126 34.9405 42.9745C34.9492 43.4506 34.9752 44.0179 34.9983 44.2353C35.0215 44.4525 35.1246 44.8561 35.2274 45.1319C35.3302 45.4077 35.5969 45.9073 35.82 46.242C36.0609 46.6035 36.4994 47.105 36.9002 47.4774C37.2713 47.8222 37.6058 48.1625 37.6435 48.2336C37.6899 48.3212 37.673 48.4442 37.5912 48.6148C37.5247 48.7533 37.3174 49.0252 37.1307 49.2188C36.9439 49.4125 36.5677 49.7601 36.2948 49.9915C36.0218 50.2228 35.6172 50.529 35.3956 50.6721C35.1741 50.8152 34.5876 51.1572 34.0923 51.4322C33.5971 51.7072 32.8336 52.068 32.3958 52.234C31.958 52.4 30.9898 52.6953 30.2442 52.8901L28.8886 53.2443L26.5775 53.2461C24.6188 53.2476 24.1698 53.2269 23.6328 53.1107C23.2842 53.0354 22.5462 52.8262 21.9926 52.6458C21.4391 52.4654 20.747 52.2475 20.4548 52.1615C20.0754 52.0499 19.8301 51.9208 19.5975 51.7104C19.3245 51.4636 19.2844 51.3934 19.351 51.2782C19.3947 51.2025 19.7996 50.8865 20.2509 50.576C20.7022 50.2656 21.1864 49.914 21.327 49.7947C21.4676 49.6754 21.712 49.4048 21.87 49.1933C22.0281 48.9819 22.2364 48.6514 22.333 48.4589C22.4297 48.2663 22.6143 47.8088 22.7433 47.442C22.9274 46.9187 22.9853 46.6133 23.0127 46.0227C23.0441 45.3428 23.0308 45.2374 22.8742 44.932C22.7789 44.7461 22.5869 44.5174 22.4476 44.4239C22.2599 44.298 22.086 44.2541 21.7766 44.2543C21.4914 44.2545 21.2819 44.302 21.116 44.4041C20.9823 44.4864 20.8085 44.6607 20.7297 44.7915C20.6509 44.9223 20.4966 45.3206 20.3868 45.6765C20.277 46.0325 20.0985 46.5557 19.9903 46.8392C19.8449 47.2198 19.704 47.4365 19.4519 47.6671C19.2641 47.8389 18.9366 48.0749 18.7243 48.1915C18.451 48.3417 18.1456 48.4281 17.6782 48.4877C17.1242 48.5583 16.9179 48.5518 16.3938 48.4476C16.0422 48.3776 15.5331 48.2055 15.2282 48.0533C14.8683 47.8737 14.5257 47.6206 14.206 47.2978C13.9415 47.0307 13.5083 46.4822 13.2434 46.0788C12.9784 45.6754 12.6277 45.0744 12.464 44.7432C12.3003 44.4121 11.9778 43.6606 11.7473 43.0734C11.5168 42.4862 11.2634 41.7501 11.1842 41.4377C11.1051 41.1252 10.9854 40.5219 10.9182 40.097C10.8382 39.5908 10.7749 38.4935 10.7347 36.9159C10.6939 35.3149 10.6331 34.2678 10.5531 33.7925C10.487 33.3993 10.3967 32.9082 10.3526 32.7012C10.3084 32.4942 10.1407 31.8508 9.97996 31.2712C9.81916 30.6917 9.5744 29.9297 9.43604 29.5778C9.29759 29.226 8.90985 28.3454 8.5743 27.621C8.23882 26.8966 7.82946 26.0838 7.6647 25.8147C7.49994 25.5456 7.14679 24.9699 6.87989 24.5352C6.613 24.1006 6.30891 23.5603 6.20424 23.3345C6.09793 23.1054 6.01398 22.7895 6.0142 22.6195C6.01443 22.4521 6.07094 22.2055 6.13975 22.0716C6.20856 21.9377 6.38726 21.7047 6.53674 21.5538C6.68621 21.4028 6.99597 21.1907 7.22507 21.0822C7.5777 20.9152 7.74432 20.885 8.31247 20.885C8.91611 20.885 9.03525 20.9098 9.50008 21.132C9.88163 21.3144 10.1647 21.531 10.5823 21.9599C10.8934 22.2794 11.3696 22.8287 11.6407 23.1805C11.9118 23.5324 12.3742 24.2053 12.6682 24.676C12.9623 25.1466 13.3316 25.7901 13.4889 26.106C13.6462 26.4218 13.9949 27.239 14.2639 27.9221C14.5329 28.6051 14.8895 29.638 15.0566 30.2176C15.2237 30.7971 15.4479 31.4493 15.5548 31.6669C15.6617 31.8845 15.8636 32.164 16.0033 32.2878C16.2132 32.4739 16.3223 32.5131 16.6312 32.5131C16.8369 32.5131 17.0957 32.4653 17.2064 32.4069C17.3172 32.3485 17.4979 32.2046 17.608 32.087C17.7182 31.9695 17.847 31.7717 17.8943 31.6475C17.9541 31.4907 17.9647 31.0975 17.9291 30.3597C17.8863 29.473 17.897 29.2601 17.9941 29.0707C18.0657 28.9309 18.2219 28.7987 18.4011 28.7264C18.5611 28.6617 18.9044 28.5534 19.1639 28.4854C19.4235 28.4175 19.7887 28.3103 19.9755 28.2472C20.1623 28.184 20.7819 27.9131 21.3522 27.6451C21.9226 27.3771 22.6438 26.9862 22.9551 26.7765C23.2663 26.5667 23.8397 26.1389 24.2292 25.8255C24.6266 25.5059 27.4952 22.6787 30.7664 19.3826C33.9723 16.1523 36.7903 13.3205 37.0287 13.0897C37.267 12.859 37.9485 12.1705 38.543 11.5599C39.1376 10.9492 39.8756 10.2707 40.1832 10.052C40.4907 9.83341 40.8429 9.61861 40.966 9.57458C41.089 9.53063 41.343 9.49194 41.5305 9.48871C41.7179 9.48547 42.0262 9.53605 42.2156 9.60123ZM37.6993 24.5801C37.9117 24.6829 38.185 24.8815 38.3066 25.0213C38.4282 25.1611 38.6016 25.473 38.6918 25.7145C38.8146 26.043 38.8461 26.252 38.8169 26.5454C38.7923 26.7945 38.6744 27.1372 38.4933 27.4861C38.2443 27.9659 37.9316 28.3156 36.0087 30.2644C34.7989 31.4907 33.5453 32.7173 33.223 32.9901C32.9006 33.2629 32.4874 33.5592 32.3047 33.6485C32.0234 33.786 31.879 33.8057 31.3625 33.7771C30.943 33.7538 30.6593 33.6945 30.4542 33.5871C30.2902 33.5012 30.0843 33.3513 29.9967 33.2542C29.909 33.157 29.7612 32.9251 29.6681 32.7388C29.5566 32.516 29.4868 32.2143 29.4636 31.8565C29.4329 31.3811 29.4528 31.2628 29.6219 30.9157C29.7282 30.6973 30.1436 30.157 30.5448 29.7151C30.946 29.2732 32.1969 28.0021 33.3244 26.8906C34.452 25.779 35.5072 24.7874 35.6692 24.687C35.8311 24.5865 36.1162 24.4615 36.3028 24.4091C36.4894 24.3567 36.7929 24.3317 36.9775 24.3536C37.162 24.3754 37.4868 24.4773 37.6993 24.5801ZM41.282 31.057C41.5075 31.1649 41.7824 31.3792 41.9327 31.5644C42.0758 31.7407 42.2457 32.0125 42.3102 32.1684C42.3748 32.3244 42.4285 32.6494 42.4296 32.8907C42.431 33.1718 42.3787 33.4465 42.2842 33.6551C42.2031 33.8341 41.8731 34.2855 41.551 34.658C41.2287 35.0306 40.2608 36.0315 39.3999 36.8823C37.9595 38.3059 37.7946 38.4453 37.3308 38.6321C37.0481 38.746 36.6811 38.8351 36.4949 38.8351C36.3123 38.8351 35.9807 38.7662 35.758 38.6822C35.5353 38.598 35.2169 38.4296 35.0505 38.3079C34.8143 38.1352 34.7227 38.0007 34.6326 37.6946C34.5692 37.479 34.5176 37.1309 34.5182 36.921C34.5186 36.7113 34.5637 36.3703 34.6184 36.1633C34.673 35.9563 34.7726 35.6798 34.8398 35.5488C34.9069 35.4177 35.6418 34.6202 36.4729 33.7764C37.3039 32.9327 38.1921 32.0688 38.4466 31.8568C38.7012 31.6448 38.9863 31.398 39.0803 31.3084C39.1743 31.2188 39.3425 31.0973 39.4539 31.0384C39.5653 30.9794 39.7833 30.9007 39.9385 30.8634C40.0936 30.8261 40.3714 30.8123 40.5559 30.8328C40.7404 30.8533 41.0671 30.9542 41.282 31.057ZM44.2959 37.5103C44.4462 37.5644 44.7402 37.7356 44.9492 37.8905C45.1582 38.0454 45.4211 38.3297 45.5333 38.5224C45.7097 38.8253 45.7372 38.9543 45.7372 39.4748C45.7372 39.986 45.7048 40.1436 45.5224 40.5187C45.4041 40.7617 45.0687 41.2187 44.7769 41.5342C44.485 41.8497 43.5839 42.7744 42.7743 43.5891C41.641 44.7296 41.2056 45.1181 40.8814 45.2783C40.5567 45.4386 40.3206 45.4937 39.851 45.5186C39.343 45.5455 39.1923 45.5253 38.9433 45.3971C38.7791 45.3125 38.5179 45.1017 38.363 44.9285C38.208 44.7553 38.0374 44.5073 37.9839 44.3774C37.9304 44.2475 37.8635 43.953 37.8353 43.723C37.8057 43.4815 37.8182 43.1767 37.8649 43.0015C37.9094 42.8346 38.0847 42.4809 38.2545 42.2154C38.4243 41.9499 39.0703 41.212 39.69 40.5755C40.3098 39.939 41.1652 39.099 41.5909 38.7087C42.0364 38.3004 42.5586 37.9003 42.821 37.7664C43.0718 37.6383 43.3609 37.5075 43.4634 37.4757C43.5659 37.444 43.7337 37.4166 43.8362 37.4149C43.9387 37.4132 44.1456 37.4561 44.2959 37.5103ZM8.49319 42.6674C8.60501 42.7883 8.80794 43.1862 8.94415 43.5517C9.08035 43.9173 9.32257 44.5246 9.48233 44.9014C9.6421 45.2782 9.97795 45.9556 10.2287 46.4067C10.4794 46.8578 10.7664 47.3793 10.8665 47.5655C10.9665 47.7518 11.2233 48.1244 11.437 48.3934C11.6507 48.6625 11.9385 49.0305 12.0764 49.2112C12.2143 49.3919 12.6484 49.8802 13.041 50.2963C13.4336 50.7124 14.1741 51.4063 14.6866 51.8383C15.1992 52.2704 15.9708 52.8587 16.4013 53.1455C16.8318 53.4324 17.6034 53.8825 18.116 54.1459C18.6285 54.4092 19.3013 54.7125 19.611 54.82C19.9206 54.9275 20.491 55.1448 20.8783 55.303C21.4405 55.5325 21.6036 55.6342 21.6868 55.8072C21.7808 56.0028 21.775 56.0533 21.6269 56.3293C21.5367 56.4972 20.5002 57.6236 19.3235 58.8323C17.4739 60.7323 17.1235 61.0586 16.7368 61.2407C16.345 61.4253 16.2061 61.4506 15.6185 61.444C15.1458 61.4388 14.7347 61.3782 14.2272 61.239C13.8311 61.1304 13.1601 60.8734 12.7362 60.6679C12.3123 60.4624 11.6636 60.1027 11.2945 59.8684C10.9255 59.6341 10.3887 59.2486 10.1017 59.0118C9.81468 58.775 9.42075 58.472 9.22625 58.3385C9.03174 58.2049 8.20199 57.4093 7.3823 56.5704C6.56201 55.7308 5.69006 54.7595 5.44284 54.4099C5.19578 54.0605 4.86119 53.584 4.69927 53.3508C4.53734 53.1177 4.11732 52.3677 3.76574 51.6842C3.28577 50.751 3.08076 50.259 2.94247 49.7089C2.84123 49.3059 2.7584 48.7684 2.7584 48.5145C2.7584 48.248 2.81841 47.8869 2.9002 47.661C2.97818 47.4456 3.11475 47.1752 3.20362 47.0599C3.29248 46.9448 4.22974 45.965 5.28629 44.8827C6.3429 43.8003 7.37216 42.8103 7.57352 42.6827C7.77496 42.555 8.01852 42.4499 8.11484 42.4491C8.21354 42.4483 8.3786 42.5436 8.49319 42.6674Z" fill="#393939"/>
<path d="M8.49319 42.6674C8.60501 42.7883 8.80794 43.1862 8.94415 43.5517C9.08035 43.9173 9.32257 44.5246 9.48233 44.9014C9.6421 45.2782 9.97795 45.9556 10.2287 46.4067C10.4794 46.8578 10.7664 47.3793 10.8665 47.5655C10.9665 47.7518 11.2233 48.1244 11.437 48.3934C11.6507 48.6625 11.9385 49.0305 12.0764 49.2112C12.2143 49.3919 12.6484 49.8802 13.041 50.2963C13.4336 50.7124 14.1741 51.4063 14.6866 51.8383C15.1992 52.2704 15.9708 52.8587 16.4013 53.1455C16.8318 53.4324 17.6034 53.8825 18.116 54.1459C18.6285 54.4092 19.3013 54.7125 19.611 54.82C19.9206 54.9275 20.491 55.1448 20.8783 55.303C21.4405 55.5325 21.6036 55.6342 21.6868 55.8072C21.7808 56.0028 21.775 56.0533 21.6269 56.3293C21.5367 56.4972 20.5002 57.6236 19.3235 58.8323C17.4739 60.7323 17.1235 61.0586 16.7368 61.2407C16.345 61.4253 16.2061 61.4506 15.6185 61.444C15.1458 61.4388 14.7347 61.3782 14.2272 61.239C13.8311 61.1304 13.1601 60.8734 12.7362 60.6679C12.3123 60.4624 11.6636 60.1027 11.2945 59.8684C10.9255 59.6341 10.3887 59.2486 10.1017 59.0118C9.81468 58.775 9.42075 58.472 9.22625 58.3385C9.03174 58.2049 8.20199 57.4093 7.3823 56.5704C6.56201 55.7308 5.69006 54.7595 5.44284 54.4099C5.19578 54.0605 4.86119 53.584 4.69927 53.3508C4.53734 53.1177 4.11732 52.3677 3.76574 51.6842C3.28577 50.751 3.08076 50.259 2.94247 49.7089C2.84123 49.3059 2.7584 48.7684 2.7584 48.5145C2.7584 48.248 2.81841 47.8869 2.9002 47.661C2.97818 47.4456 3.11475 47.1752 3.20362 47.0599C3.29248 46.9448 4.22974 45.965 5.28629 44.8827C6.3429 43.8003 7.37216 42.8103 7.57352 42.6827C7.77496 42.555 8.01852 42.4499 8.11484 42.4491C8.21354 42.4483 8.3786 42.5436 8.49319 42.6674Z" fill="#393939"/>
</svg>
