<svg width="67" height="44" viewBox="0 0 67 44" fill="none" xmlns="http://www.w3.org/2000/svg">
<path fill-rule="evenodd" clip-rule="evenodd" d="M13.164 0.731835C13.1462 0.760667 13.041 1.28224 12.9301 1.89081C12.8192 2.49938 12.6334 3.52368 12.517 4.16702C12.4007 4.81037 12.2711 5.55697 12.229 5.82613C12.1868 6.09529 12.1206 6.33948 12.0818 6.36869C12.043 6.39797 11.7833 6.50185 11.5048 6.59967C11.2262 6.69742 10.4997 6.98744 9.89039 7.24421C9.28105 7.50098 8.35712 7.93233 7.83723 8.20282L6.89196 8.69454L6.68684 9.67123C6.57409 10.2084 6.17822 12.1844 5.80717 14.0622C5.43611 15.9401 5.06392 17.8038 4.9801 18.2037C4.89622 18.6036 4.71167 19.5283 4.56992 20.2586C4.42817 20.9889 4.23033 21.9847 4.13024 22.4716C4.03015 22.9584 3.84402 23.8832 3.71652 24.5265C3.58908 25.1699 3.4008 26.1088 3.29817 26.613C3.19549 27.1173 3.0992 27.601 3.08413 27.6879C3.069 27.7749 2.95574 28.3439 2.83241 28.9525C2.70909 29.5611 2.0948 32.6339 1.46735 35.7811C0.839894 38.9283 0.311392 41.5529 0.292905 41.6134C0.260998 41.7178 0.990695 41.7236 14.4514 41.724L28.6434 41.7245L28.969 42.0362C29.148 42.2077 29.407 42.4367 29.5444 42.5451C29.6819 42.6535 29.9553 42.8399 30.1521 42.9592C30.3488 43.0786 30.7682 43.2759 31.0839 43.3977C31.3997 43.5195 31.9239 43.6623 32.2489 43.7149C32.5739 43.7675 33.0535 43.8106 33.3147 43.8106C33.5758 43.8106 34.0551 43.7675 34.3798 43.715C34.7045 43.6624 35.203 43.5308 35.4877 43.4226C35.7724 43.3144 36.0697 43.1673 36.1485 43.0957C36.2274 43.0241 36.3429 42.9618 36.4053 42.9572C36.4677 42.9526 36.656 42.8547 36.8235 42.7395C36.9911 42.6243 37.3206 42.3489 37.5558 42.1273L37.9833 41.7246L52.1665 41.724C65.6151 41.7235 66.3484 41.7178 66.3242 41.6134C66.3102 41.5529 65.7862 38.9283 65.1598 35.7811C64.5334 32.6339 63.919 29.5468 63.7945 28.9209C63.67 28.2949 63.4729 27.3133 63.3565 26.7395C63.2402 26.1657 63.0405 25.1699 62.913 24.5265C62.7854 23.8832 62.599 22.9584 62.4988 22.4716C62.2011 21.0251 61.6323 18.1251 61.6323 18.1251C61.4238 16.8127 61.1102 15.4753 60.8473 14.1571C60.4692 12.2618 60.0649 10.257 59.9489 9.70202L59.7379 8.69284L58.5391 8.08717C57.8798 7.75402 57.1979 7.42226 57.0238 7.34993C56.8497 7.27753 56.4609 7.11542 56.1597 6.98953C55.8586 6.86371 55.1036 6.59151 54.482 6.38469C53.8605 6.17787 52.8961 5.89518 52.3389 5.75639C51.7818 5.61767 50.8923 5.43051 50.3624 5.34047C49.8324 5.25044 48.935 5.12942 48.3682 5.07157C47.6885 5.0022 46.7663 4.96623 45.6599 4.96597C44.5447 4.96572 43.6308 5.00113 42.9342 5.07169C42.3578 5.13005 41.4604 5.25082 40.9399 5.34003C40.4195 5.42918 39.5949 5.60167 39.1074 5.72332C38.6199 5.84491 37.9362 6.03086 37.588 6.13646C37.2398 6.24211 36.613 6.45184 36.1952 6.60257C35.7774 6.75325 35.2218 6.9669 34.9607 7.07729C34.6995 7.18769 34.4004 7.31604 34.2959 7.36251C34.1915 7.40899 33.9948 7.49181 33.8589 7.54663C33.723 7.60139 33.6071 7.63876 33.6013 7.62959C33.5956 7.62042 33.3799 7.32843 33.1221 6.98068C32.8643 6.63292 32.3351 6.0303 31.9459 5.64151C31.5568 5.25272 30.915 4.69605 30.5197 4.40444C30.1245 4.1129 29.6942 3.80978 29.5636 3.731C29.4331 3.65216 29.3262 3.60966 29.3262 3.63654C29.3262 3.66341 29.2906 3.63951 29.2471 3.58343C29.2036 3.52741 28.997 3.39001 28.7881 3.27822C28.5792 3.16637 28.0664 2.91985 27.6485 2.73029C27.2307 2.54073 26.4757 2.24805 25.9708 2.0798C25.4659 1.91155 24.6825 1.6886 24.2298 1.5844C23.7772 1.4802 23.2501 1.36475 23.0586 1.32776C22.8671 1.29077 22.4255 1.2173 22.0773 1.16457C21.7291 1.11177 21.09 1.02616 20.6571 0.974187C20.2241 0.922213 19.284 0.8526 18.5679 0.819468C17.8518 0.786337 16.3502 0.741255 15.2311 0.719252C14.1119 0.697312 13.1817 0.702939 13.164 0.731835ZM18.9752 2.49559C19.8109 2.54819 20.7968 2.63216 21.1661 2.68211C21.5355 2.732 22.1146 2.81735 22.453 2.87179C22.7915 2.92617 23.5006 3.0795 24.029 3.21259C24.5573 3.34562 25.3295 3.57495 25.745 3.72221C26.1605 3.86941 26.8727 4.16513 27.3277 4.37934C27.7827 4.59356 28.4826 4.98557 28.883 5.2505C29.2835 5.51543 29.8738 5.96416 30.1948 6.24767C30.5158 6.53119 31.0057 7.01994 31.2833 7.33381C31.5609 7.64767 31.9466 8.13763 32.1402 8.4226L32.4923 8.94075L32.4762 23.1863L32.46 37.432L32.0166 37.0649C31.7728 36.8631 31.4025 36.5669 31.1936 36.4068C30.9848 36.2467 30.5094 35.9125 30.1371 35.6639C29.7649 35.4154 29.4417 35.2121 29.4189 35.2121C29.396 35.2121 29.3004 35.1573 29.2062 35.0904C29.1121 35.0234 28.6634 34.7824 28.2091 34.5547C27.7548 34.327 27.1437 34.0381 26.8511 33.9126C26.5585 33.7872 26.0166 33.5731 25.6469 33.4368C25.2773 33.3006 24.6933 33.1025 24.3491 32.9966C24.005 32.8906 23.3957 32.7213 22.9953 32.6204C22.5949 32.5194 21.8969 32.364 21.4443 32.2749C20.9916 32.1858 20.4788 32.0846 20.3047 32.0499C20.1306 32.0153 19.5323 31.9314 18.9752 31.8636C18.4181 31.7959 17.5919 31.7038 17.1393 31.6592C16.6292 31.6088 15.3894 31.5776 13.8788 31.5771C12.3698 31.5767 11.0918 31.6081 10.5235 31.6594C10.0186 31.7051 9.54144 31.7579 9.46306 31.777C9.34113 31.8065 9.32061 31.7861 9.32061 31.6349C9.32061 31.5378 9.42045 30.9159 9.54251 30.2529C9.66451 29.5898 9.86374 28.4925 9.98517 27.8144C10.1066 27.1363 10.3051 26.0266 10.4263 25.3485C10.5475 24.6704 10.7231 23.6887 10.8166 23.1671C10.9101 22.6455 10.9921 22.176 10.9988 22.1238C11.0056 22.0717 11.0297 21.9294 11.0524 21.8077C11.0751 21.686 11.1912 21.0458 11.3103 20.3851C11.4296 19.7243 11.603 18.7427 11.6958 18.2037C11.7886 17.6647 11.9469 16.7826 12.0473 16.2436C12.1478 15.7046 12.2572 15.0786 12.2905 14.8526C12.3238 14.6265 12.4359 13.9864 12.5397 13.43C12.6434 12.8735 12.8296 11.8493 12.9534 11.1537C13.0772 10.4582 13.2794 9.32012 13.4027 8.62461C13.526 7.9291 13.6992 6.94748 13.7875 6.44324C13.8758 5.93899 14.046 4.98583 14.1656 4.32509C14.2853 3.66436 14.4018 2.99572 14.4246 2.83923C14.4474 2.68274 14.4882 2.51114 14.5154 2.45796C14.558 2.37444 14.7633 2.36382 16.0103 2.38051C16.8053 2.39113 18.1395 2.44292 18.9752 2.49559ZM48.4138 6.72454C48.9361 6.77898 49.5344 6.85422 49.7433 6.89184C49.9522 6.9294 50.4769 7.02924 50.9093 7.11358C51.3416 7.19799 51.9684 7.33975 52.3021 7.42865C52.6357 7.51761 53.2648 7.70521 53.7001 7.84558C54.1353 7.98594 54.8191 8.22982 55.2195 8.38757C55.6199 8.54526 56.2467 8.81145 56.6123 8.97907L57.277 9.28376L57.3862 9.8078C57.4462 10.096 57.5354 10.5452 57.5845 10.806C57.6335 11.0668 58.0343 13.0727 58.4752 15.2636C58.9161 17.4544 59.3403 19.486 59.3403 19.486C59.4928 20.1954 59.605 20.894 59.747 21.5968C59.9427 22.5648 60.1276 23.499 60.1582 23.6729C60.1886 23.8468 60.3152 24.487 60.4395 25.0956C60.5638 25.7041 60.7083 26.4012 60.7606 26.6447C60.813 26.8881 61.2679 29.1643 61.7716 31.7029C62.2753 34.2415 62.7762 36.7403 62.8846 37.2557C62.9931 37.7712 63.072 38.2025 63.06 38.2142C63.0479 38.2259 62.5681 38.0799 61.9935 37.8895C61.419 37.6993 60.6071 37.4473 60.1892 37.3295C59.7714 37.2117 58.931 36.9992 58.3216 36.8573C57.7123 36.7153 56.6439 36.501 55.9475 36.381C55.2512 36.261 54.1686 36.1064 53.5418 36.0375C52.9151 35.9685 51.9892 35.8829 51.4843 35.8473C50.9794 35.8116 49.7544 35.7823 48.762 35.7823C47.7696 35.7823 46.5589 35.8102 46.0714 35.8442C45.5839 35.8784 44.7435 35.9518 44.2038 36.0075C43.6641 36.0631 42.8949 36.1613 42.4944 36.2256C42.094 36.29 41.4388 36.3991 41.0383 36.4682C40.6379 36.5373 40.0539 36.6522 39.7405 36.7236C39.4271 36.795 38.7291 36.9641 38.1894 37.0994C37.6497 37.2346 36.8663 37.4525 36.4484 37.5835C36.0306 37.7145 35.365 37.9315 34.9695 38.0659C34.5739 38.2003 34.2248 38.3103 34.1938 38.3103C34.1609 38.3103 34.1441 32.2446 34.1534 23.7637L34.1693 9.21712L34.9983 8.84566C35.4543 8.64137 36.0383 8.39819 36.2962 8.30525C36.554 8.2123 37.0499 8.03855 37.3981 7.91905C37.7463 7.79961 38.3873 7.60493 38.8225 7.48644C39.2578 7.36795 39.9842 7.19749 40.4369 7.1077C40.8895 7.01798 41.5163 6.90499 41.8297 6.85675C42.1431 6.80844 42.7841 6.73769 43.2541 6.6995C43.7242 6.66138 44.2085 6.61908 44.3304 6.60554C44.4523 6.59201 45.2072 6.591 46.0081 6.60327C46.8089 6.6156 47.8915 6.67017 48.4138 6.72454ZM11.7693 8.41912C11.7506 8.4974 11.6884 8.83168 11.6311 9.16205C11.5739 9.49242 11.4285 10.3175 11.3082 10.9957C11.1878 11.6738 10.9881 12.7977 10.8644 13.4932C10.7408 14.1887 10.5442 15.2841 10.4277 15.9275C10.3112 16.5708 10.115 17.6662 9.99181 18.3618C9.86855 19.0573 9.66685 20.1954 9.54352 20.8909C9.4202 21.5864 9.24648 22.568 9.15753 23.0723C9.06852 23.5765 8.89657 24.5439 8.77534 25.222C8.6541 25.9001 8.4586 26.9956 8.34078 27.6563C8.22303 28.317 8.02513 29.4267 7.90104 30.1222C7.77696 30.8177 7.58032 31.9083 7.46402 32.5457L7.25263 33.7047L7.47573 33.6629C7.59849 33.6399 7.92845 33.5967 8.20904 33.567C8.48962 33.5372 9.08954 33.4696 9.5422 33.4167C9.99485 33.3638 10.8205 33.2909 11.3771 33.2547C11.9336 33.2184 13.0732 33.189 13.9094 33.1894C14.7457 33.1897 15.843 33.219 16.3479 33.2545C16.8528 33.2899 17.7787 33.3768 18.4054 33.4476C19.0322 33.5184 20.072 33.6745 20.7162 33.7944C21.3604 33.9144 22.2578 34.113 22.7104 34.2358C23.1631 34.3586 23.7329 34.5201 23.9766 34.5947C24.2203 34.6694 24.7901 34.8698 25.2428 35.0402C25.6954 35.2106 26.4361 35.5247 26.8888 35.7383C27.3415 35.9519 27.9397 36.2573 28.2183 36.4168C28.4969 36.5764 28.9741 36.8679 29.2787 37.0646C29.5834 37.2613 29.8327 37.4354 29.8327 37.4514C29.8327 37.4675 29.7116 37.443 29.5636 37.3971C29.4157 37.3511 29.0097 37.2403 28.6615 37.1507C28.3133 37.0612 27.5868 36.8881 27.0471 36.766C26.5074 36.6439 25.5672 36.4576 24.9579 36.352C24.3485 36.2463 23.5509 36.1317 23.1852 36.0974C22.8196 36.063 22.3068 36.0072 22.0457 35.9733C21.7845 35.9394 21.1342 35.8823 20.6003 35.8464C20.0666 35.8105 18.8273 35.7814 17.8464 35.7818C16.8656 35.7821 15.6499 35.811 15.145 35.8459C14.6401 35.8808 13.7134 35.9666 13.0855 36.0365C12.4578 36.1064 11.5319 36.2351 11.028 36.3226C10.5242 36.4099 9.94161 36.5105 9.73333 36.546C9.5251 36.5815 8.8841 36.7223 8.30888 36.8589C7.73372 36.9956 6.9497 37.192 6.56668 37.2955C6.18366 37.399 5.35748 37.6521 4.73073 37.8581C4.10397 38.0639 3.58332 38.2255 3.57382 38.2171C3.56426 38.2086 4.85893 31.698 6.45089 23.7489L9.34531 9.29597L9.98188 8.99601C10.332 8.83105 10.8464 8.60406 11.1249 8.49164C11.4035 8.37922 11.6701 8.28495 11.7174 8.28204C11.7752 8.27856 11.7922 8.32352 11.7693 8.41912Z" fill="#393939"/>
</svg>
