<svg width="56" height="51" viewBox="0 0 56 51" fill="none" xmlns="http://www.w3.org/2000/svg">
<path fill-rule="evenodd" clip-rule="evenodd" d="M31.2861 0.618527C30.7694 0.890713 30.0708 1.53304 29.7339 2.04586C29.2493 2.78312 29.1211 3.36207 29.1211 4.81464C29.1211 5.82464 28.9577 7.20231 28.7582 7.87619C28.5587 8.55007 27.6276 10.2674 26.689 11.6926C25.7503 13.1177 24.4445 14.9994 23.7869 15.8739C22.8547 17.1141 22.2122 17.6464 20.8689 18.2914C19.8366 18.787 18.8998 19.4696 18.5319 19.994L17.9177 20.869V34.1765V47.484L18.5659 48.4078C18.9225 48.9157 19.7121 49.5613 20.3206 49.8423C21.3435 50.3142 22.284 50.3529 32.7655 50.3523C39.0016 50.3521 44.5674 50.2426 45.134 50.109C45.7004 49.9753 46.6407 49.53 47.2232 49.1198C47.8957 48.6462 48.5433 47.8316 48.9969 46.8896C49.6 45.6365 49.689 45.1586 49.5695 43.8166C49.4509 42.4886 49.5071 42.1774 49.9107 41.9212C50.1766 41.7524 50.7265 40.9235 51.1331 40.079C51.775 38.7455 51.8503 38.3317 51.707 36.9354C51.5793 35.6957 51.6279 35.2937 51.9184 35.1804C52.1257 35.0995 52.6386 34.4393 53.0579 33.713C53.6823 32.6322 53.8208 32.07 53.8224 30.6095C53.8238 29.1141 53.9385 28.671 54.5319 27.8657C54.9209 27.3375 55.3957 26.5983 55.5871 26.223C55.7783 25.8476 55.9389 24.8598 55.9443 24.0279C55.9505 23.0072 55.7694 22.1583 55.3868 21.4177C55.075 20.8141 54.5346 20.0568 54.186 19.7349C53.8375 19.4131 53.1273 18.9198 52.6076 18.6385C51.785 18.1935 50.8861 18.1153 45.6561 18.0349C42.3523 17.9838 39.6517 17.8601 39.6541 17.7594C39.6568 17.6587 39.907 16.6504 40.2107 15.5185C40.535 14.3093 40.826 12.1535 40.9159 10.2916C41.0347 7.83311 40.972 6.78305 40.6362 5.60952C40.3984 4.7776 39.8447 3.59337 39.4063 2.97793C38.8898 2.25357 38.06 1.58627 37.0503 1.08443C36.0015 0.562828 34.9581 0.279117 33.8589 0.216558C32.6713 0.148786 31.9694 0.258539 31.2861 0.618527ZM36.2715 3.27097C36.9488 3.64413 37.5905 4.31115 38.0022 5.06927C38.4652 5.92259 38.6925 6.85275 38.7813 8.25648C38.8501 9.34687 38.7654 11.0873 38.5929 12.1242C38.4204 13.161 37.983 15.0724 37.6208 16.3713C37.2587 17.6705 36.8919 18.9203 36.8055 19.1483C36.7194 19.3766 36.8468 19.7646 37.0887 20.0104C37.4717 20.3998 38.4066 20.4574 44.3533 20.4574C51.0102 20.4574 51.2003 20.4728 52.0914 21.083C52.5935 21.4271 53.1564 22.0137 53.3421 22.3863C53.5276 22.7592 53.6812 23.4715 53.6834 23.9695C53.6855 24.4672 53.4993 25.2445 53.2693 25.6964C53.0395 26.1483 52.4623 26.7591 51.9869 27.0535C51.5118 27.3482 50.9103 27.5897 50.6504 27.5902C50.3904 27.5908 50.1779 27.7148 50.1779 27.8657C50.1779 28.0166 50.2962 28.1401 50.4409 28.1401C50.5856 28.1401 50.8893 28.5045 51.1158 28.9495C51.3423 29.3948 51.5277 30.2034 51.5277 30.7467C51.5277 31.29 51.3434 32.0964 51.1182 32.5392C50.8931 32.9818 50.3523 33.5314 49.9169 33.7602C49.4812 33.9891 48.8759 34.1765 48.5717 34.1765C48.2672 34.1765 48.0183 34.2514 48.0183 34.3427C48.0183 34.4341 48.322 34.8756 48.6932 35.3239C49.0644 35.7723 49.3816 36.4692 49.398 36.8728C49.4145 37.2761 49.4029 37.9064 49.3721 38.2733C49.3416 38.6398 49.1281 39.2328 48.8973 39.5906C48.6667 39.9481 48.1376 40.4197 47.7216 40.6384C47.3056 40.8571 46.7162 41.036 46.412 41.036C46.1075 41.036 45.8586 41.1444 45.8586 41.2769C45.8586 41.4092 46.0597 41.6871 46.3054 41.8943C46.551 42.1011 46.9225 42.6848 47.1306 43.191C47.3639 43.7584 47.4378 44.4405 47.3234 44.9704C47.2211 45.4428 46.9533 46.1156 46.7279 46.4649C46.5027 46.8145 45.9779 47.2793 45.5619 47.498C44.9351 47.8275 42.7751 47.8955 32.9558 47.8955C21.2533 47.8955 21.0995 47.8884 20.5917 47.3182C20.1047 46.7717 20.0733 46.0945 20.0018 34.5987C19.9556 27.1718 20.0288 22.1833 20.1897 21.7525C20.3719 21.2652 20.995 20.7856 22.2114 20.1954C23.3523 19.6419 24.2944 18.9362 24.8948 18.1852C25.404 17.5484 26.8499 15.4842 28.1084 13.5979C29.3667 11.7115 30.6172 9.489 30.8871 8.659C31.1571 7.82899 31.3882 6.34734 31.4006 5.36642C31.413 4.38551 31.5251 3.41996 31.6495 3.22076C31.774 3.02156 32.1368 2.74882 32.4556 2.61438C32.7747 2.4802 33.5214 2.4396 34.1153 2.52411C34.7092 2.60861 35.6795 2.94473 36.2715 3.27097ZM1.99007 19.3217C1.54463 19.6013 0.937222 20.1076 0.640266 20.4467C0.118163 21.0429 0.097916 21.5086 0.0255667 34.4786C-0.0403036 46.2534 0.00262014 47.996 0.375975 48.7299C0.61003 49.1898 1.19044 49.8071 1.66584 50.1016C2.44549 50.585 3.04966 50.6374 7.85225 50.6382L13.1745 50.6393L14.1256 49.7907C14.6485 49.324 15.2068 48.4907 15.366 47.9386C15.5593 47.2686 15.6276 42.6809 15.5718 34.1276C15.4905 21.6751 15.4727 21.2986 14.929 20.5457C14.6215 20.1199 13.9533 19.5555 13.4442 19.2918C12.6643 18.8874 11.7534 18.8119 7.65923 18.8125C3.40034 18.813 2.69979 18.8759 1.99007 19.3217ZM11.4508 44.179C11.8153 44.5494 12.1136 45.1723 12.1136 45.5633C12.1136 45.9543 11.8153 46.5771 11.4508 46.9475C11.0864 47.318 10.5562 47.6211 10.2724 47.6211C9.98871 47.6211 9.43665 47.3652 9.04547 47.0524C8.52418 46.6358 8.33413 46.2325 8.33413 45.5433C8.33413 44.9687 8.54416 44.3895 8.87405 44.0542C9.17101 43.7524 9.72307 43.5054 10.101 43.5054C10.479 43.5054 11.0864 43.8086 11.4508 44.179Z" fill="#393939"/>
</svg>
