<svg width="37" height="50" viewBox="0 0 37 50" fill="none" xmlns="http://www.w3.org/2000/svg">
<path fill-rule="evenodd" clip-rule="evenodd" d="M0.846359 0.848139C0.3922 1.32845 0.0488281 2.16309 0.0488281 2.78761C0.0488281 3.46311 0.374958 4.1885 0.897717 4.6761C1.37059 5.11708 2.22424 5.46813 2.82367 5.46886L3.90074 5.46958L3.91945 8.83726C3.93559 11.7399 4.0772 12.4908 4.94479 14.2773C5.49873 15.4175 6.66825 17.1381 7.54428 18.1009C8.42032 19.0637 10.2292 20.6674 11.5646 21.6645C12.9003 22.6612 14.0845 23.7642 14.1967 24.1152C14.309 24.4659 14.2668 24.9779 14.1032 25.2525C13.9396 25.527 12.4912 26.8005 10.8848 28.0819C9.27801 29.3634 7.33481 31.2315 6.5659 32.2329C5.76543 33.2758 4.83841 35.1192 4.39599 36.5477C3.80793 38.4468 3.66706 39.6408 3.80499 41.5548L3.98622 44.0678H2.75104C2.00523 44.0678 1.22568 44.3562 0.782526 44.7961C0.334237 45.2411 0.0488281 46.0098 0.0488281 46.7724C0.0488281 47.6871 0.30709 48.2224 1.01548 48.7752C1.96084 49.5133 2.3453 49.5301 18.4573 49.5301H34.9328L35.8331 48.6361C36.3951 48.0786 36.7337 47.3255 36.7337 46.6333C36.7337 46.0098 36.4123 45.2054 36 44.7961C35.5569 44.3562 34.7773 44.0678 34.0315 44.0678H32.7963L32.9775 41.5548C33.1155 39.6408 32.9746 38.4468 32.3866 36.5477C31.9441 35.1192 31.0171 33.2758 30.2166 32.2329C29.4477 31.2315 27.5045 29.3656 25.8977 28.0867C24.2913 26.8078 22.8353 25.4724 22.6625 25.1199C22.4879 24.7634 22.4879 24.243 22.6625 23.9488C22.8353 23.6579 24.2913 22.3709 25.8977 21.0895C27.5045 19.808 29.4477 17.9399 30.2166 16.9385C31.0134 15.9007 31.9441 14.053 32.3814 12.6408C32.935 10.8532 33.1063 9.51057 32.9977 7.81581L32.8469 5.46776H33.9926C34.716 5.46776 35.4325 5.15714 35.9362 4.62512C36.3903 4.1448 36.7337 3.31017 36.7337 2.68565C36.7337 2.01015 36.4076 1.28476 35.8848 0.797158C35.0385 0.00840634 34.9769 0.00549316 18.3399 0.00549316H1.64425L0.846359 0.848139ZM30.3443 6.77543C30.4804 7.495 30.4918 8.91883 30.37 9.93991C30.2482 10.961 29.7254 12.6547 29.2085 13.7038C28.6652 14.8061 27.3541 16.4513 26.1024 17.6017C24.9113 18.6963 23.2704 20.06 22.456 20.6321C21.6412 21.2042 20.7083 22.2209 20.3825 22.8913C19.9962 23.6866 19.8708 24.5351 20.0212 25.3322C20.1543 26.035 20.753 27.0113 21.4313 27.6297C22.0796 28.221 23.65 29.5524 24.9215 30.5884C26.1927 31.6244 27.7213 33.1418 28.3186 33.9597C28.9154 34.7779 29.6499 36.2695 29.9507 37.2746C30.2511 38.2796 30.4973 39.7071 30.4973 40.4471C30.4973 41.1866 30.3942 42.3039 30.268 42.9298L30.0387 44.0678H18.3678H6.69723L6.4452 42.4007C6.30653 41.4838 6.29553 39.994 6.42026 39.0902C6.54499 38.1864 6.96686 36.7298 7.35756 35.8533C7.74788 34.9768 8.81065 33.4757 9.7186 32.518C10.6265 31.5599 12.368 30.0389 13.5885 29.1376C14.8094 28.2363 16.0743 26.9505 16.4 26.2801C16.7881 25.4812 16.9121 24.6371 16.7595 23.8301C16.5882 22.9245 15.9774 22.1393 14.4498 20.8612C13.3075 19.9053 11.4993 18.3219 10.4314 17.3424C9.36349 16.3632 8.07218 14.7143 7.56189 13.679C7.05161 12.6434 6.53435 10.961 6.41255 9.93991C6.29076 8.91883 6.30213 7.495 6.43823 6.77543L6.68549 5.46776H18.3913H30.097L30.3443 6.77543ZM9.5869 14.8796C9.5869 15.0919 10.7839 16.2645 12.2466 17.4851C13.7092 18.7061 15.5023 20.2458 16.2309 20.9071C17.0647 21.6645 17.6352 22.5679 17.7713 23.3476C17.8902 24.0286 17.8575 26.1909 17.6987 28.1526C17.4841 30.797 17.2243 31.9656 16.6931 32.6717C16.1997 33.3279 14.7536 34.0875 12.0463 35.1133C8.21819 36.5637 8.10593 36.6388 7.73138 37.9872C7.52007 38.749 7.39718 40.1419 7.45807 41.0825L7.56923 42.7933H18.3913H29.2133L29.3245 41.0825C29.3854 40.1419 29.2647 38.749 29.0559 37.9872C28.6865 36.6391 28.5702 36.5612 24.6163 35.015C21.9978 33.9907 20.3631 33.1345 20.0127 32.6036C19.6961 32.1244 19.3311 30.2046 19.1393 28.0102C18.9577 25.9367 18.9067 23.758 19.0252 23.1684C19.144 22.5785 19.8341 21.5582 20.559 20.9005C21.2835 20.2428 23.073 18.7061 24.536 17.4851C25.9986 16.2645 27.1956 15.0919 27.1956 14.8796C27.1956 14.6673 26.9194 14.5989 26.5819 14.7274C26.2444 14.856 24.2634 15.1312 22.1797 15.3395C19.5586 15.6014 17.224 15.6014 14.6028 15.3395C12.5191 15.1312 10.5381 14.856 10.2006 14.7274C9.86313 14.5989 9.5869 14.6673 9.5869 14.8796Z" fill="#393939"/>
</svg>
