<svg width="370" height="96" viewBox="0 0 370 96" fill="none" xmlns="http://www.w3.org/2000/svg">
<path fill-rule="evenodd" clip-rule="evenodd" d="M52.4351 19.8536C51.76 20.2314 51.313 21.34 51.3476 22.551C51.3801 23.6822 50.8307 25.8232 50.1274 27.3089C49.4241 28.7946 48.2767 30.805 47.5783 31.7759C46.8792 32.7469 46.207 34.3356 46.0848 35.3066C45.9627 36.2775 45.6138 37.4695 45.3095 37.9546C45.0052 38.4404 44.9388 39.1331 45.1619 39.4946C45.3858 39.8562 45.2403 40.3547 44.8392 40.6026C44.4381 40.8504 44.2927 41.3489 44.5165 41.7105C44.7397 42.072 44.6796 42.7605 44.3831 43.2414C44.0858 43.7215 43.7624 45.5003 43.6642 47.1943C43.5576 49.0274 43.9156 50.9304 44.5476 51.8957C45.2573 52.9789 46.0679 53.397 46.9901 53.1562C47.7492 52.9577 48.3699 52.5143 48.3699 52.1711C48.3699 51.8286 48.3416 51.3379 48.3063 51.0816C48.2717 50.8252 48.7484 50.3323 49.3655 49.9871C49.9834 49.6418 50.4883 48.8643 50.4883 48.2591C50.4883 47.5191 50.0844 47.3002 49.2525 47.5897C48.175 47.9654 48.1863 47.8891 49.3408 46.9931C50.0879 46.414 50.4862 45.4989 50.2538 44.8937C50.0272 44.3034 50.3845 43.2774 51.0475 42.6122C51.7113 41.9477 52.2967 41.0644 52.3489 40.6499C52.4012 40.2354 52.4803 39.5222 52.5255 39.0639C52.57 38.6063 53.0155 37.8119 53.5155 37.2986C54.0154 36.7859 54.9955 33.3054 55.6932 29.5657C56.7545 23.8743 56.8103 22.5235 56.0349 21.2821C55.5251 20.4665 54.7646 19.6672 54.3445 19.5055C53.9243 19.3445 53.0649 19.5012 52.4351 19.8536ZM291.159 20.3013C290.584 20.9806 290.074 22.2933 290.027 23.2176C289.98 24.1419 289.407 26.0485 288.755 27.4544C288.102 28.8603 287.109 30.5381 286.547 31.1821C285.987 31.8268 285.377 33.4156 285.192 34.7127C285.008 36.0106 284.661 37.5485 284.422 38.1311C284.183 38.7137 283.941 39.3492 283.885 39.5434C283.829 39.7376 283.368 42.2464 282.86 45.119C282.033 49.7992 282.056 50.4079 283.077 50.9799C283.704 51.3308 284.218 52.1174 284.218 52.7283C284.218 53.577 284.441 53.654 285.165 53.0524C285.687 52.6202 286.335 52.4875 286.606 52.7586C286.876 53.0298 287.282 52.5503 287.506 51.6931C287.73 50.8365 288.194 50.1353 288.537 50.1353C288.88 50.1353 289.161 49.4659 289.161 48.6475C289.161 47.5347 288.849 47.2699 287.925 47.5975C287.09 47.8934 287.21 47.6265 288.296 46.7734C289.565 45.7771 289.721 45.3294 289.038 44.6459C288.354 43.9623 288.359 43.7802 289.061 43.7802C289.55 43.7802 289.754 43.4624 289.514 43.074C289.274 42.6857 289.593 42.3679 290.223 42.3679C290.891 42.3679 291.316 41.8531 291.242 41.1322C291.173 40.4529 291.153 39.5222 291.198 39.0639C291.242 38.6063 291.685 37.8119 292.181 37.2986C292.677 36.7859 293.68 33.2885 294.411 29.5276C295.659 23.099 295.668 22.5807 294.552 20.8775C293.899 19.8811 293.104 19.0656 292.785 19.0656C292.465 19.0656 291.734 19.622 291.159 20.3013ZM273.456 22.7869C272.894 23.6526 272.215 25.7554 271.947 27.4593C271.679 29.1632 270.645 33.1352 269.648 36.286C268.652 39.4367 267.592 42.6503 267.293 43.4271C266.994 44.2038 265.998 46.551 265.079 48.6433C264.16 50.7348 261.958 53.9922 260.184 55.8811C257.896 58.318 256.415 59.315 255.084 59.315C253.786 59.315 252.6 58.5531 251.237 56.8436C250.152 55.4843 248.708 54.3721 248.029 54.3721C247.186 54.3721 246.793 54.9257 246.793 56.1127C246.793 57.0703 247.727 58.9182 248.87 60.2189C250.326 61.8769 251.961 62.8168 254.342 63.3619C256.907 63.9501 258.515 63.9275 260.915 63.2708C262.663 62.792 264.967 61.9729 266.035 61.4504C267.105 60.9272 267.977 59.9174 267.977 59.2014C267.977 58.4875 268.299 57.9028 268.694 57.9028C269.089 57.9028 269.963 56.7115 270.636 55.2548C271.31 53.7987 272.417 51.9911 273.096 51.2376C273.776 50.4849 274.366 49.6905 274.408 49.4723C274.449 49.2548 274.529 48.2288 274.584 47.1929C274.64 46.157 274.912 45.083 275.19 44.8055C275.467 44.528 275.377 43.7067 274.989 42.9815C274.441 41.959 274.527 41.6618 275.366 41.6618C275.962 41.6618 276.45 41.344 276.45 40.9556C276.45 40.5673 276.424 40.0468 276.39 39.799C276.357 39.5511 276.704 39.1169 277.161 38.8344C277.79 38.446 277.763 37.9525 277.052 36.8135C276.318 35.6392 276.294 35.0128 276.942 33.9755C277.399 33.244 277.597 31.9729 277.382 31.151C277.104 30.0854 277.319 29.6575 278.133 29.6575C278.788 29.6575 279.275 29.0799 279.275 28.3032C279.275 27.5582 279.475 26.427 279.72 25.7893C280.028 24.9872 279.702 24.5091 278.661 24.2373C277.833 24.0205 277.157 23.5742 277.157 23.2451C277.157 22.9154 276.553 22.3229 275.816 21.9289C274.744 21.3548 274.273 21.5257 273.456 22.7869ZM186.636 22.2608C186.432 22.4649 185.095 22.676 183.664 22.7297C182.233 22.7833 180.917 23.063 180.739 23.3518C180.561 23.6399 179.806 23.7168 179.063 23.5219C177.854 23.2063 177.771 23.4196 178.276 25.5302C178.587 26.8295 179.056 28.4112 179.32 29.0453C179.699 29.9605 181.141 30.2613 186.286 30.5014C190.618 30.7033 193.557 31.2167 195.131 32.0464C196.704 32.8754 197.962 34.3632 198.917 36.5204C200.222 39.4699 200.246 39.8082 199.193 40.3971C198.559 40.7523 198.224 41.3405 198.45 41.7048C198.675 42.0699 198.109 42.3679 197.193 42.3679C196.278 42.3679 195.146 41.9866 194.68 41.5205C194.214 41.0545 193.833 40.9154 193.833 41.2113C193.833 41.5071 192.888 40.7148 191.734 39.4502C190.579 38.1862 189.44 37.3459 189.203 37.5824C188.966 37.8197 188.143 37.384 187.374 36.615C186.605 35.8461 185.281 35.3073 184.432 35.4167C183.583 35.5262 182.517 35.385 182.062 35.1018C181.608 34.8186 180.757 35.0672 180.171 35.6533C179.585 36.2394 178.765 36.7188 178.348 36.7188C177.932 36.7188 177.592 37.3734 177.592 38.1728C177.592 38.9721 177.274 39.4304 176.886 39.1903C176.497 38.9502 176.18 39.2595 176.18 39.8767C176.18 40.4945 176.609 41.1646 177.134 41.3659C177.713 41.5883 177.961 42.4046 177.763 43.4391C177.528 44.6656 178.03 45.739 179.547 47.2557C180.707 48.4159 181.527 49.4956 181.368 49.6552C181.209 49.814 181.917 50.4933 182.942 51.1649C184.208 51.9939 185.035 52.1542 185.525 51.6648C186.014 51.1755 185.735 50.1198 184.653 48.37C183.642 46.7332 183.308 45.549 183.737 45.1204C184.165 44.6918 185.075 44.9679 186.232 45.8781C187.234 46.6661 188.429 47.3108 188.888 47.3108C189.348 47.3108 190.251 47.9619 190.895 48.7577C191.54 49.5535 193.339 50.5414 194.892 50.9516C196.446 51.3626 198.669 51.6712 199.834 51.638C200.998 51.6041 202.304 51.0936 202.736 50.5032C203.168 49.9122 204.018 49.4292 204.623 49.4292C205.295 49.4292 205.916 48.5331 206.216 47.1343C206.485 45.8724 206.931 44.5216 207.206 44.1332C207.481 43.7449 207.742 42.7181 207.785 41.8524C207.83 40.986 207.568 40.0934 207.204 39.8689C206.841 39.6436 206.543 37.8712 206.543 35.9294C206.543 33.542 206.292 32.5541 205.767 32.8789C205.265 33.1889 205.296 32.7864 205.856 31.7406C206.595 30.3608 206.527 29.9795 205.397 29.1548C204.668 28.6223 202.66 26.8492 200.933 25.2145C199.207 23.5806 198.048 22.664 198.359 23.1781C198.827 23.9534 198.655 23.9534 197.345 23.1781C196.097 22.4387 195.7 22.4282 195.447 23.1258C195.271 23.6116 194.378 24.0085 193.463 24.0085C192.547 24.0085 191.604 23.6942 191.366 23.3101C191.11 22.8956 191.427 22.801 192.147 23.0771C192.969 23.3927 193.195 23.2769 192.848 22.7163C192.567 22.2615 191.138 21.8901 189.672 21.8901C188.207 21.8901 186.84 22.0567 186.636 22.2608ZM365.423 22.5178C365.423 22.8631 364.881 23.1011 364.219 23.0474C363.379 22.9789 362.964 23.5551 362.845 24.9497C362.751 26.0499 362.393 27.3209 362.049 27.7743C361.706 28.2276 360.7 30.6638 359.815 33.1882C358.93 35.7126 357.966 38.0365 357.673 38.3528C357.381 38.6692 356.701 38.4588 356.163 37.8847C355.625 37.3106 354.439 35.8673 353.529 34.6781C352.619 33.4883 350.783 31.8416 349.45 31.0175C347.229 29.6441 346.89 29.6088 345.384 30.596C344.48 31.1884 342.262 34.635 340.456 38.2561C338.649 41.8771 337.172 45.3767 337.174 46.0334C337.176 46.6901 337.508 47.4316 337.913 47.6815C338.317 47.9315 338.454 48.7443 338.218 49.4885C337.926 50.4093 338.125 50.8415 338.843 50.8415C339.424 50.8415 340.044 50.2857 340.222 49.6057C340.399 48.9257 340.581 49.4214 340.626 50.7066C340.672 51.9918 341.004 52.8603 341.366 52.6372C341.727 52.4133 342.214 52.5397 342.448 52.9175C342.681 53.2953 343.319 53.433 343.865 53.2233C344.412 53.0135 345.062 51.919 345.31 50.7906C345.557 49.6622 346.053 48.5578 346.412 48.3361C346.771 48.1151 347.073 47.0785 347.086 46.0334C347.098 44.9883 347.56 43.5373 348.111 42.8092C349.072 41.541 349.208 41.5791 351.343 43.7152C352.57 44.9417 354.731 46.8066 356.144 47.8595C357.558 48.9123 358.948 50.0937 359.234 50.4842C359.565 50.9382 359.756 50.9001 359.763 50.3782C359.769 49.9291 360.339 49.7088 361.029 49.8896C361.964 50.1339 362.525 49.5542 363.225 47.618C364.008 45.4537 364.008 44.9206 363.225 44.4369C362.49 43.9828 362.565 43.7484 363.569 43.3635C364.533 42.9935 364.756 42.3848 364.462 40.9182C364.191 39.5624 364.396 38.8401 365.134 38.5576C365.717 38.3331 366.131 37.7484 366.051 37.2576C365.972 36.7676 366.149 35.8115 366.445 35.1343C366.741 34.4564 367.267 34.0779 367.616 34.2933C367.963 34.5079 368.248 34.3265 368.248 33.8894C368.248 33.453 367.923 32.4877 367.525 31.7456C366.942 30.656 367.01 30.4752 367.878 30.8078C368.658 31.1072 368.954 30.7534 368.954 29.5212C368.954 28.5863 369.309 27.4664 369.743 27.0321C370.325 26.4503 369.948 25.6707 368.307 24.0664C367.082 22.8695 365.933 21.8901 365.752 21.8901C365.571 21.8901 365.423 22.1725 365.423 22.5178ZM84.7088 25.0076C83.9469 25.4292 83.1652 25.879 82.9717 26.0082C82.7776 26.1368 83.2358 26.6932 83.9893 27.244C84.9807 27.9692 85.0781 28.2573 84.3409 28.2897C83.7817 28.3145 84.0677 28.6329 84.9772 28.9973C85.8874 29.3624 86.883 29.5043 87.1909 29.3143C87.4995 29.1237 88.6971 29.2981 89.853 29.7013C91.0096 30.1045 92.2962 31.1821 92.7128 32.0965C93.3229 33.436 93.2283 33.9776 92.2235 34.8871C91.5371 35.5078 90.7639 35.803 90.5041 35.5438C90.2442 35.284 90.0316 35.4739 90.0316 35.9668C90.0316 36.6518 88.8694 36.7457 85.0788 36.3651L80.1253 35.8672L80.8887 37.8818C81.3088 38.9898 82.3221 40.6117 83.1405 41.4852C83.9589 42.3587 85.0386 43.074 85.5399 43.074C86.0413 43.074 86.7651 43.6608 87.1492 44.3783C87.6294 45.275 87.5934 45.936 87.0327 46.4966C86.585 46.9443 86.484 47.3108 86.8082 47.3108C87.1323 47.3108 86.5603 47.9696 85.5371 48.7746C84.5139 49.5789 83.6765 50.6699 83.6765 51.1981C83.6765 51.7262 84.3092 52.3597 85.0824 52.6047C85.8556 52.8504 86.8089 52.8525 87.2008 52.611C87.5927 52.3688 87.9182 52.5863 87.9238 53.0947C87.9316 53.7663 88.1223 53.7295 88.6194 52.9599C88.9958 52.3773 89.3086 52.1782 89.3149 52.5164C89.3206 52.8554 89.8022 52.7374 90.3847 52.2537C90.9673 51.77 91.446 51.6521 91.4489 51.9911C91.451 52.3293 92.0399 51.7171 92.7566 50.6296C93.6986 49.2018 93.9895 47.7034 93.8038 45.2369C93.551 41.8722 93.5807 41.8157 95.8495 41.3871C97.7348 41.0312 98.376 40.407 99.3879 37.9454C100.068 36.2916 100.624 34.5447 100.624 34.0631C100.624 33.5822 101.005 33.1882 101.471 33.1882C102.13 33.1882 102.13 32.9996 101.471 32.3408C101.005 31.8748 100.624 30.9215 100.624 30.2224C100.624 29.5234 100.306 28.9514 99.9175 28.9514C99.5291 28.9514 99.2113 28.4748 99.2113 27.8922C99.2113 27.2821 98.573 26.833 97.7052 26.833C96.8769 26.833 95.6687 26.2208 95.0198 25.473C94.1067 24.4201 92.9649 24.1271 89.9667 24.1772C87.837 24.2125 85.4707 24.5868 84.7088 25.0076ZM199.136 25.432C199.38 25.8268 199.842 25.9878 200.163 25.7893C200.484 25.5909 200.928 25.9037 201.151 26.4842C201.374 27.0646 201.328 27.537 201.049 27.5342C200.769 27.5321 199.588 26.8987 198.423 26.1269C196.978 25.1701 196.684 24.7224 197.499 24.7195C198.155 24.7167 198.892 25.0373 199.136 25.432ZM62.3816 27.0985C58.1851 28.5037 57.8885 28.7459 57.6781 30.9392C57.5545 32.2271 57.8483 33.7566 58.332 34.3392C58.8863 35.0072 59.8269 35.2423 60.8839 34.9775C61.804 34.7466 62.8413 34.7332 63.1888 34.9479C63.5567 35.1745 63.5362 36.1532 63.14 37.2887C62.7665 38.3613 61.6734 40.0885 60.7109 41.1258C59.7492 42.1638 58.9619 43.2188 58.9619 43.4709C58.9619 43.7237 58.0545 45.0879 56.9444 46.503C55.8351 47.9181 54.4504 50.1883 53.8664 51.5476C53.2824 52.9069 52.3878 54.9723 51.8772 56.1375C51.3667 57.3026 50.3873 60.3213 49.7002 62.8457C49.0132 65.3701 48.4327 68.3281 48.4108 69.4191C48.3854 70.6315 49.2328 72.4759 50.59 74.1643C51.8102 75.6832 53.0812 76.7579 53.4145 76.5524C53.7471 76.3469 54.0203 75.1649 54.0218 73.9256C54.0239 72.6864 54.8352 69.448 55.8259 66.7294C56.8159 64.0108 57.9478 60.6744 58.3405 59.315C58.7338 57.9557 59.5536 55.4935 60.1637 53.8425C60.7731 52.1916 61.4856 50.8415 61.7461 50.8415C62.0074 50.8415 62.8096 49.4913 63.5298 47.8404C64.2494 46.1895 65.0642 44.6805 65.341 44.4863C65.6178 44.2921 66.6785 42.8975 67.6988 41.3864C68.8399 39.6973 69.5538 37.6721 69.5538 36.1257C69.5538 34.2495 69.7572 33.8152 70.356 34.414C70.7966 34.8547 71.2492 36.4978 71.3608 38.0654C71.4724 39.6323 71.7492 41.2148 71.9752 41.5813C72.2018 41.9478 71.9879 42.387 71.4999 42.5571C70.858 42.7817 70.9837 43.2852 71.954 44.3783L73.2942 45.8887L75.3081 43.7816C76.4167 42.6214 77.3665 40.7996 77.4215 39.7263C77.4773 38.6551 77.6108 36.6779 77.7195 35.3327C77.8276 33.9882 77.6193 32.3331 77.2563 31.6545C76.8934 30.9759 75.4959 29.582 74.1515 28.5567C72.8077 27.5314 70.6166 26.446 69.2834 26.1452C67.5258 25.7491 65.6306 26.0111 62.3816 27.0985ZM258.284 25.9171C257.025 26.1601 256.399 27.2362 255.154 31.2936C254.298 34.0829 253.664 36.7393 253.745 37.1955C253.826 37.6516 253.565 38.2264 253.167 38.4729C252.768 38.7193 252.442 39.537 252.442 40.2912C252.442 41.0453 252.124 41.6618 251.736 41.6618C251.347 41.6618 251.03 42.1384 251.03 42.721C251.03 43.3035 251.369 43.7802 251.782 43.7802C252.196 43.7802 253.19 43.4299 253.99 43.0013C255.088 42.4138 255.58 42.4392 255.991 43.1037C256.291 43.5888 257.045 43.7907 257.667 43.5521C258.289 43.3134 258.797 42.4992 258.797 41.743C258.797 40.986 259.671 39.7114 260.739 38.9093C262.257 37.7696 262.472 37.3141 261.723 36.8205C261.043 36.3728 260.995 36.0466 261.558 35.6992C261.994 35.4294 262.168 34.9133 261.944 34.5517C261.721 34.1902 262.006 33.8943 262.578 33.8943C263.305 33.8943 263.58 33.2058 263.492 31.5994C263.407 30.0374 263.051 29.3737 262.375 29.5205C261.591 29.6914 261.559 29.5248 262.22 28.7275C262.682 28.1725 262.86 27.2009 262.617 26.5696C262.375 25.9376 261.655 25.4638 261.016 25.5168C260.378 25.5697 259.149 25.7498 258.284 25.9171ZM300.051 26.0683C299.887 26.23 299.753 26.7857 299.753 27.304C299.753 27.8216 300.03 28.2453 300.37 28.2453C300.71 28.2453 302.098 29.2776 303.454 30.5402C304.811 31.8028 306.293 33.9896 306.748 35.4005C307.431 37.5189 307.373 38.4715 306.412 40.873C305.772 42.4717 304.958 43.7802 304.602 43.7802C304.246 43.7802 303.682 44.4983 303.348 45.3767C302.946 46.4324 301.513 47.4146 299.115 48.2768C296.214 49.3205 295.281 49.4073 294.443 48.7125C293.869 48.2344 293.398 48.0911 293.398 48.3933C293.398 48.6948 292.816 48.4152 292.105 47.7719C291.394 47.1279 290.599 46.8144 290.339 47.0736C290.079 47.3334 289.867 48.262 289.867 49.1362C289.867 50.1791 290.683 51.2305 292.239 52.1923C294.033 53.3009 295.627 53.6265 298.771 53.5262C301.265 53.4464 304.015 52.8412 305.64 52.0137C307.13 51.2553 308.519 50.1947 308.725 49.658C308.951 49.0691 309.627 48.8481 310.428 49.103C311.162 49.336 311.757 49.187 311.757 48.7704C311.757 48.3559 312.234 48.0169 312.816 48.0169C313.399 48.0169 313.887 47.9379 313.902 47.8404C313.917 47.743 314.111 46.402 314.334 44.8598C314.557 43.3176 315.179 41.7288 315.717 41.3292C316.483 40.76 316.539 40.0405 315.973 38.0089C315.576 36.5826 315.339 35.0764 315.446 34.6619C315.553 34.2474 314.37 32.3267 312.816 30.3933C310.935 28.0525 309.161 26.6402 307.504 26.1657C306.135 25.7731 303.966 25.5245 302.682 25.6128C301.398 25.7018 300.215 25.9066 300.051 26.0683ZM232.232 28.0878C231.02 29.1456 229.832 30.5819 229.594 31.2795C229.354 31.9772 228.757 32.4955 228.266 32.4312C227.776 32.367 226.977 32.3521 226.492 32.3987C226.004 32.4446 225.609 33.4127 225.609 34.5588C225.609 35.7013 225.884 36.8057 226.22 37.0133C226.557 37.2209 226.677 38.2031 226.487 39.1945C226.297 40.1867 225.521 41.3313 224.761 41.738C224 42.1448 222.77 42.9992 222.025 43.6361C221.281 44.2737 220.476 45.8414 220.236 47.1202C219.996 48.3983 219.571 49.586 219.291 49.759C219.012 49.932 218.92 51.0053 219.087 52.145C219.254 53.2847 220.337 55.3642 221.492 56.7659C222.648 58.1683 224.084 59.315 224.683 59.315C225.395 59.315 225.642 58.8857 225.396 58.0793C225.187 57.3993 224.696 55.8105 224.303 54.5487C223.814 52.9754 223.82 52.2537 224.322 52.2537C224.724 52.2537 224.88 51.8011 224.668 51.2482C224.456 50.6953 225.1 49.4243 226.101 48.4237C227.102 47.4231 228.24 46.6047 228.631 46.6047C229.023 46.6047 230.351 47.7712 231.584 49.1976C233.056 50.8994 234.136 51.5977 234.731 51.2298C235.29 50.8845 235.487 49.9207 235.245 48.7111C234.938 47.1724 235.149 46.6753 236.233 46.3921C236.991 46.1937 237.79 46.3194 238.007 46.6711C238.225 47.0227 239.443 47.3108 240.714 47.3108C241.986 47.3108 243.267 47.0721 243.56 46.7812C243.854 46.4903 244.939 46.2516 245.973 46.2516C247.527 46.2516 247.858 45.9275 247.886 44.3775C247.904 43.3473 248.335 42.0035 248.843 41.3913C249.556 40.532 249.588 39.7707 248.985 38.0407C248.556 36.8092 248.205 35.1428 248.205 34.3364C248.205 33.5307 247.04 31.8345 245.616 30.5684C244.193 29.3016 241.989 28.0701 240.719 27.8322C239.45 27.5942 238.106 27.5879 237.733 27.8181C237.36 28.0483 236.873 27.7623 236.65 27.1818C236.428 26.6014 235.838 26.1353 235.34 26.1459C234.843 26.1565 233.444 27.03 232.232 28.0878ZM32.0547 29.4181C31.4312 29.5855 30.5739 30.4223 30.1503 31.2781C29.7266 32.1346 28.6745 34.5828 27.8116 36.7188C26.9487 38.8549 25.857 41.0792 25.3853 41.6618C24.9143 42.2443 24.2887 43.5154 23.9949 44.4863C23.7019 45.4572 22.7112 47.1498 21.7932 48.2479C20.8752 49.3452 20.1246 50.6663 20.1246 51.1832C20.1246 51.7001 18.5012 53.582 16.5177 55.3657C14.5335 57.1493 12.2301 58.6012 11.3982 58.592C10.5664 58.5828 8.62314 58.2827 7.08024 57.9247C5.53735 57.5667 3.89912 56.761 3.44084 56.1339C2.95149 55.4652 2.42825 55.283 2.17475 55.6933C1.93678 56.0781 2.0653 56.5922 2.46002 56.8365C2.85475 57.0801 3.17745 57.8964 3.17745 58.6506C3.17745 59.4047 3.65409 60.0212 4.23665 60.0212C4.81921 60.0212 5.29585 60.2888 5.29585 60.6157C5.29585 60.9427 6.55488 61.5874 8.09354 62.0478C9.6322 62.5089 11.7767 62.6777 12.8599 62.4227C13.9424 62.1678 16.2585 61.3431 18.0062 60.591C20.0561 59.7084 22.3115 57.8527 24.3614 55.3614C26.1091 53.2374 28.1745 50.3359 28.9513 48.913C29.728 47.4902 30.7759 45.8738 31.2801 45.3216C31.7836 44.7702 32.2969 44.4354 32.4205 44.5788C32.5441 44.7221 33.2008 46.0313 33.8801 47.4873C34.9957 49.8811 35.3778 50.1353 37.8584 50.1353C40.4231 50.1353 40.6024 49.9998 40.6024 48.0628C40.6024 46.9231 40.3207 45.2496 39.9768 44.3444C39.6322 43.4384 39.1789 40.479 38.9699 37.7667C38.7601 35.0545 38.2552 31.9616 37.8478 30.8933C37.2709 29.3828 36.6714 28.9698 35.1476 29.0333C34.07 29.0785 32.6782 29.2515 32.0547 29.4181ZM327.924 29.4181C327.3 29.5855 326.443 30.4223 326.019 31.2781C325.596 32.1346 324.544 34.5828 323.681 36.7188C322.818 38.8549 321.726 41.0792 321.254 41.6618C320.783 42.2443 320.156 43.5154 319.862 44.4863C319.567 45.4572 318.717 47.046 317.973 48.0169C317.229 48.9879 315.923 50.8648 315.072 52.1881C314.219 53.5114 312.358 55.5309 310.935 56.6762C308.552 58.5934 308.058 58.7184 304.679 58.2537C302.619 57.9706 300.437 57.1748 299.702 56.4397C298.779 55.5168 298.243 55.3706 297.888 55.9447C297.611 56.3931 297.759 56.8853 298.215 57.0371C298.672 57.1896 299.047 57.9233 299.047 58.6675C299.047 59.4125 299.523 60.0212 300.106 60.0212C300.688 60.0212 301.165 60.2888 301.165 60.6157C301.165 60.9427 302.424 61.5874 303.963 62.0478C305.501 62.5089 307.646 62.6777 308.729 62.4227C309.812 62.1678 312.128 61.3431 313.875 60.591C315.925 59.7084 318.181 57.8527 320.231 55.3614C321.978 53.2374 324.044 50.3359 324.82 48.913C325.597 47.4902 326.645 45.8738 327.149 45.3216C327.653 44.7702 328.166 44.4354 328.29 44.5788C328.413 44.7221 329.07 46.0313 329.749 47.4873C330.875 49.903 331.233 50.1353 333.819 50.1353H336.655L336.221 47.1343C335.982 45.484 335.352 41.0806 334.821 37.3501C334.29 33.6196 333.632 30.2034 333.357 29.7592C333.082 29.3151 332.002 28.9881 330.957 29.0333C329.912 29.0785 328.547 29.2515 327.924 29.4181ZM239.767 35.3722C240.202 36.185 240.373 37.5874 240.147 38.4877C239.83 39.7481 239.07 40.2375 236.841 40.6139C235.099 40.9076 233.653 40.8088 233.208 40.3639C232.695 39.8505 232.826 38.8761 233.64 37.1609C234.34 35.6858 235.443 34.5736 236.388 34.3914C237.256 34.2241 238.194 34.0433 238.471 33.9904C238.749 33.9374 239.332 34.5595 239.767 35.3722Z" fill="#393939"/>
<path fill-rule="evenodd" clip-rule="evenodd" d="M115.81 1.0429C114.454 1.65229 112.597 2.84847 111.683 3.70148C110.769 4.55449 109.576 6.1101 109.03 7.1587C108.484 8.20801 108.038 10.2918 108.038 11.7902C108.038 13.2886 108.443 15.0681 108.937 15.7438C109.753 16.8602 110.628 16.349 118.47 10.1781C123.218 6.44057 127.104 3.09986 127.104 2.75385C127.104 2.40714 126.481 1.79069 125.72 1.38396C124.959 0.97652 122.973 0.483641 121.306 0.288748C119.374 0.0634924 117.383 0.336765 115.81 1.0429ZM155.387 0.73573C154.437 1.11492 153.247 1.76739 152.743 2.18612C152.036 2.77221 153.844 4.54248 160.646 9.92462C165.495 13.7631 169.586 16.9033 169.735 16.9033C169.884 16.9033 170.404 15.9451 170.889 14.7729C171.378 13.5916 171.589 11.5191 171.361 10.1181C171.136 8.72843 170.15 6.54225 169.171 5.2585C168.193 3.97546 166.011 2.25744 164.325 1.44045C162.638 0.624161 160.326 -0.0233618 159.186 0.000646661C158.046 0.0253613 156.337 0.355831 155.387 0.73573ZM122.043 3.43174C121.914 3.79045 119.345 6.02112 116.335 8.38949C110.923 12.6489 110.863 12.6743 110.866 10.7395C110.868 9.66335 111.583 7.91779 112.455 6.86142C113.327 5.80434 114.993 4.45634 116.159 3.8646C117.324 3.27357 119.177 2.78775 120.277 2.78492C121.378 2.7828 122.173 3.07373 122.043 3.43174ZM163.83 4.36948C165.113 5.24367 166.778 6.78657 167.527 7.79916C168.277 8.81176 168.782 10.3201 168.651 11.1512C168.434 12.5239 167.958 12.3015 163.469 8.73338C160.751 6.57261 158.061 4.349 157.493 3.79257C156.591 2.90991 156.78 2.78069 158.977 2.78069C160.426 2.78069 162.486 3.45504 163.83 4.36948ZM130.86 6.67641C128.848 7.15658 125.754 8.25109 123.983 9.10833C122.213 9.96487 119.523 12.0776 118.004 13.802C116.45 15.5687 114.25 19.4037 112.967 22.587C110.757 28.068 110.699 28.4853 110.988 36.6023C111.262 44.2913 111.471 45.3442 113.568 49.6029C114.974 52.4599 117.149 55.4044 119.242 57.2834C121.109 58.9591 123.562 60.7703 124.693 61.3077C125.825 61.8451 127.438 62.5992 128.279 62.9833C129.12 63.3682 131.259 63.7438 133.034 63.818C134.808 63.8928 136.433 64.1287 136.646 64.3412C136.859 64.5545 139.327 64.5884 142.131 64.4175C144.934 64.2466 147.705 63.9232 148.288 63.6986C148.87 63.4741 150.141 63.1669 151.112 63.0151C152.083 62.8633 154.201 61.7999 155.817 60.6517C157.434 59.5042 159.069 58.5651 159.449 58.5651C159.829 58.5651 160.341 58.0432 160.586 57.4049C160.831 56.7666 160.872 56.0858 160.678 55.8917C160.484 55.6975 160.124 56.0604 159.88 56.6988C159.635 57.3371 159.144 57.8589 158.789 57.8589C158.434 57.8589 156.958 58.6322 155.511 59.5777C154.062 60.5225 150.928 61.6911 148.545 62.1734C145.235 62.8435 142.55 62.8704 137.167 62.285C132.314 61.7575 128.828 60.932 125.965 59.6313C123.678 58.5926 120.912 56.8951 119.816 55.8592C118.721 54.8233 117.192 52.9527 116.419 51.7036C115.646 50.4544 114.397 47.2776 113.644 44.6444C112.891 42.0112 112.275 38.1819 112.275 36.1348C112.275 34.087 112.925 29.9872 113.719 27.0236C114.513 24.0593 115.508 20.9671 115.931 20.1515C116.353 19.3359 117.754 17.3623 119.043 15.7657C120.421 14.0604 123.214 11.9286 125.813 10.5983C129.396 8.76445 131.249 8.28922 135.555 8.09927C138.48 7.97075 143.084 8.14658 145.787 8.49117C148.648 8.85554 152.284 9.91756 154.488 11.0325C156.571 12.0868 159.204 14.0061 160.338 15.299C161.473 16.5912 163.046 18.9137 163.835 20.4594C164.624 22.0044 165.86 25.7293 166.583 28.7367C167.668 33.2531 167.98 33.8858 168.379 32.374C168.652 31.3402 168.361 28.6096 167.71 26.0964C167.076 23.6497 165.75 20.1042 164.763 18.2174C163.777 16.3306 162.011 13.9806 160.84 12.9949C159.668 12.0091 157.82 10.7423 156.732 10.1795C155.643 9.61675 153.377 8.69736 151.697 8.13599C150.016 7.57461 147.528 6.9398 146.169 6.72443C144.81 6.50906 141.632 6.2139 139.108 6.06843C136.583 5.92297 132.872 6.19624 130.86 6.67641ZM126.635 17.447C126.02 17.8389 126.056 18.543 126.778 20.261C127.308 21.5214 128.086 22.5524 128.507 22.5524C129.055 22.5524 129.056 22.9556 128.508 23.9795C128.088 24.764 127.923 25.6954 128.142 26.0491C128.36 26.4022 128.216 26.8908 127.821 27.1352C127.426 27.3788 127.094 28.2749 127.081 29.1257C127.069 29.9766 126.592 31.29 126.022 32.0435C125.452 32.7976 124.985 34.3031 124.985 35.3898C124.985 36.4759 124.446 37.9941 123.788 38.7623C123.13 39.5313 122.191 41.6801 121.702 43.5372C121.212 45.3943 120.796 47.5897 120.78 48.4165C120.763 49.2427 121.231 50.3196 121.822 50.8096C122.413 51.2997 124.125 51.8116 125.626 51.9472C127.235 52.092 128.637 51.8335 129.037 51.3188C129.411 50.8379 130.138 48.3791 130.653 45.8547C131.168 43.3303 132.464 39.4049 133.533 37.1319C134.602 34.8581 135.319 32.5865 135.126 32.0837C134.933 31.5803 135.127 30.9511 135.558 30.6849C135.988 30.4187 136.148 29.5925 135.911 28.8482C135.675 28.104 135.777 27.4953 136.138 27.4953C136.499 27.4953 136.631 26.6451 136.432 25.6064C136.234 24.5677 135.678 22.9598 135.197 22.0334C134.717 21.1069 133.273 19.5732 131.989 18.6263C130.704 17.6786 129.159 16.9083 128.555 16.9139C127.951 16.9203 127.087 17.1603 126.635 17.447ZM154.3 21.1239C154.075 21.4875 153.407 21.5991 152.815 21.3717C152.224 21.1443 150.289 21.705 148.516 22.6166C146.743 23.5282 144.799 25.0281 144.196 25.9489C143.592 26.8704 142.359 27.9048 141.456 28.248C140.553 28.5919 139.814 29.3616 139.814 29.959C139.814 30.5564 139.519 31.5972 139.159 32.2716C138.799 32.9459 137.984 35.2084 137.348 37.2999C136.588 39.8003 136.431 41.3418 136.889 41.7994C137.272 42.1828 137.466 42.8544 137.32 43.2929C137.174 43.7307 137.596 45.2015 138.258 46.5608C138.921 47.9201 140.177 49.3458 141.05 49.7292C141.924 50.1127 142.639 50.8619 142.639 51.3936C142.639 51.9543 143.075 52.1936 143.675 51.9635C144.245 51.7445 144.9 51.8695 145.129 52.241C145.359 52.6124 146.307 52.916 147.237 52.916C148.167 52.916 149.737 52.5474 150.726 52.0962C151.715 51.6457 152.524 50.9763 152.524 50.6084C152.524 50.2412 153.001 50.1233 153.584 50.3471C154.166 50.5703 155.119 50.5703 155.702 50.3471C156.285 50.1233 156.761 49.5139 156.761 48.9921C156.761 48.4702 157.292 47.7464 157.94 47.3835C158.706 46.9549 159.139 45.765 159.176 43.9941C159.207 42.4928 159.528 41.0523 159.889 40.7917C160.25 40.5319 161.012 38.6253 161.582 36.555C162.152 34.4853 162.603 32.035 162.583 31.11C162.564 30.1856 162.12 29.1575 161.597 28.8263C161.073 28.4945 160.867 28.2184 161.138 28.212C161.409 28.2064 161.292 27.2284 160.877 26.04C160.411 24.7025 159.765 24.0155 159.185 24.2386C158.668 24.4363 158.074 24.0578 157.864 23.3969C157.654 22.7367 156.859 21.806 156.096 21.3293C155.275 20.8167 154.542 20.7327 154.3 21.1239ZM154.187 27.2008C154.777 27.4268 155.099 28.0305 154.903 28.5418C154.707 29.0523 154.863 29.6666 155.25 29.906C155.662 30.1602 154.428 33.3435 152.281 37.5683C149.138 43.7519 148.335 44.8273 146.722 45.0151C145.225 45.1895 144.608 44.7906 143.72 43.0733C142.976 41.6342 142.872 40.9118 143.409 40.9118C143.887 40.9118 144.054 40.2925 143.818 39.3915C143.599 38.5554 143.927 36.8868 144.546 35.6843C145.166 34.4818 146.267 33.0787 146.993 32.5667C147.718 32.0541 148.129 31.3402 147.906 30.9786C147.682 30.6178 148.392 29.5374 149.482 28.5778C150.573 27.6189 151.837 26.8238 152.29 26.8118C152.744 26.799 153.598 26.9742 154.187 27.2008Z" fill="white"/>
<path fill-rule="evenodd" clip-rule="evenodd" d="M132.157 80.0158C131.194 82.8397 131.184 83.3156 132.078 83.6581C132.643 83.8756 133.582 83.8699 134.165 83.6461C134.829 83.3911 135.224 82.3115 135.224 80.746C135.224 79.3747 135.241 78.014 135.262 77.723C135.282 77.4321 134.841 77.0974 134.281 76.9802C133.622 76.8425 132.873 77.9123 132.157 80.0158ZM124.427 80.1055C124.151 80.3809 123.926 82.6398 123.926 85.1254C123.926 89.639 123.929 89.6439 125.868 89.4208C127.764 89.2026 127.81 89.0903 127.81 84.6078C127.81 80.525 127.65 79.9954 126.369 79.8118C125.576 79.6981 124.702 79.8308 124.427 80.1055ZM138.049 80.3089C138.049 80.6634 139.32 83.1574 140.873 85.852C142.427 88.5466 143.698 90.9581 143.698 91.2101C143.698 91.4629 142.268 91.6691 140.52 91.6691C137.602 91.6691 137.343 91.8132 137.343 93.4345C137.343 95.1864 137.39 95.1998 143.698 95.1998C147.193 95.1998 150.053 95.0247 150.053 94.81C150.053 94.596 149.348 93.1944 148.485 91.6953L146.916 88.9703L148.485 85.1868C149.348 83.1059 150.053 81.0122 150.053 80.5341C150.053 80.0561 149.292 79.6649 148.363 79.6649C147.08 79.6649 146.428 80.2792 145.656 82.2161L144.638 84.7681L143.132 82.2161C142.033 80.3527 141.145 79.6649 139.838 79.6649C138.854 79.6649 138.049 79.9544 138.049 80.3089ZM152.877 80.2136C152.877 80.5158 153.377 81.4768 153.989 82.3496C155.013 83.8113 154.977 84.3084 153.532 88.685C152.67 91.297 151.818 93.832 151.64 94.3171C151.425 94.8983 152.032 95.1998 153.418 95.1998C155.348 95.1998 155.605 94.9011 156.532 91.5674L157.542 87.9344L159.873 91.5674C161.798 94.5671 162.561 95.1998 164.249 95.1998C165.374 95.1998 166.294 95.024 166.294 94.8093C166.294 94.5946 165.528 93.2911 164.592 91.9127L162.889 89.4074L164.238 85.4848C164.981 83.3276 165.588 81.1351 165.588 80.6132C165.588 80.0766 164.834 79.6649 163.85 79.6649C162.419 79.6649 161.977 80.1648 161.351 82.4894C160.933 84.0429 160.486 85.3139 160.358 85.3139C160.231 85.3139 159.286 84.0429 158.258 82.4894C156.91 80.4529 155.898 79.6649 154.633 79.6649C153.668 79.6649 152.877 79.912 152.877 80.2136ZM168.328 80.1945C168.282 80.4854 168.313 82.6306 168.398 84.9609C168.482 87.2911 168.664 89.3156 168.802 89.4589C168.94 89.603 169.862 89.5175 170.851 89.269C172.331 88.8976 172.649 88.3983 172.649 86.448C172.649 85.1445 172.451 83.0854 172.208 81.8716C171.863 80.1436 171.403 79.6649 170.089 79.6649C169.167 79.6649 168.374 79.9036 168.328 80.1945ZM174.612 80.1062C174.42 80.4459 174.671 83.9017 175.168 87.7854C175.665 91.6691 176.096 94.9265 176.126 95.0233C176.156 95.12 176.858 95.1998 177.687 95.1998C178.516 95.1998 180.411 94.8354 181.898 94.3892C183.386 93.9436 185.306 92.8307 186.165 91.9163C187.324 90.6834 187.741 89.3453 187.779 86.7446C187.819 84.0493 187.479 82.8841 186.31 81.7141C185.138 80.5419 183.659 80.1112 179.874 79.8407C177.171 79.6472 174.803 79.7666 174.612 80.1062ZM196.658 85.184C196.658 89.2895 196.365 91.1558 195.598 91.9212C195.016 92.5038 194.539 93.4797 194.539 94.0905C194.539 94.7076 195.131 95.1998 195.873 95.1998C196.607 95.1998 197.94 94.6066 198.835 93.8821C200.165 92.8046 200.517 91.708 200.761 87.88C201.036 83.5642 201.185 83.1955 202.667 83.1955C203.551 83.1955 204.467 83.6983 204.703 84.3127C204.938 84.927 205.131 87.6491 205.131 90.3614V95.2937L207.073 95.0699L209.015 94.8467L208.997 88.6758C208.984 83.7859 208.727 82.2515 207.759 81.2848C206.906 80.4303 205.054 79.9798 201.598 79.7849L196.658 79.5053V85.184ZM210.78 81.39C210.78 82.9138 211.129 83.1398 213.781 83.3318L216.782 83.5486L216.987 89.3742L217.193 95.1998H219.282H221.372L221.362 89.0211C221.355 85.6232 221.111 82.4654 220.817 82.0043C220.524 81.5425 219.396 80.8279 218.311 80.4155C217.225 80.0024 215.087 79.6649 213.559 79.6649C211.083 79.6649 210.78 79.8527 210.78 81.39ZM224.641 80.2234C224.391 80.6288 223.987 82.4117 223.743 84.1863C223.45 86.3294 223.599 87.7713 224.188 88.4817C224.676 89.0699 225.831 89.5507 226.754 89.5507C227.939 89.5507 228.434 89.1518 228.434 88.1971C228.434 87.4528 228.073 86.7241 227.634 86.5772C227.149 86.4155 227.029 85.6967 227.328 84.7533C227.6 83.8967 228.373 83.1955 229.046 83.1955C229.719 83.1955 230.651 83.5769 231.117 84.0429C231.583 84.509 231.964 86.0342 231.964 87.4323C231.964 88.8305 231.583 90.3557 231.117 90.8218C230.651 91.2878 228.744 91.6691 226.88 91.6691C223.695 91.6691 223.491 91.7807 223.491 93.5164C223.491 95.3502 223.525 95.3622 228.095 95.0713C231.665 94.8439 233.054 94.4238 234.274 93.2036C235.549 91.929 235.848 90.8324 235.848 87.4323C235.848 84.1206 235.537 82.9244 234.377 81.7642C233.391 80.7778 231.62 80.1606 229.001 79.8901C226.615 79.6437 224.919 79.7736 224.641 80.2234ZM238.817 80.1083C238.541 80.3851 238.812 81.3702 239.42 82.2981C240.439 83.853 240.403 84.355 238.966 88.7097C238.108 91.3083 237.26 93.832 237.082 94.3171C236.867 94.8983 237.473 95.1998 238.858 95.1998C240.747 95.1998 241.051 94.8771 241.85 92.0222C242.339 90.2745 242.937 88.8453 243.178 88.846C243.418 88.8467 244.519 90.2766 245.622 92.0236C247.25 94.5996 248.017 95.1998 249.682 95.1998C250.812 95.1998 251.736 95.024 251.736 94.8093C251.736 94.5946 250.97 93.2911 250.033 91.9127L248.331 89.4074L249.68 85.4848C250.423 83.3276 251.03 81.1132 251.03 80.5645C251.03 79.9445 250.456 79.6522 249.513 79.792C248.679 79.9163 247.758 80.4946 247.467 81.0772C247.176 81.6597 246.657 82.8785 246.316 83.7852C245.708 85.4008 245.66 85.3789 243.946 82.726C242.984 81.2367 241.549 79.9255 240.758 79.8118C239.968 79.6981 239.094 79.8315 238.817 80.1083ZM183.599 84.6234C183.848 85.4093 183.84 87.0192 183.58 88.202C183.3 89.4794 182.491 90.5831 181.586 90.922C180.314 91.3987 179.99 91.1883 179.617 89.639C179.372 88.6193 179.134 86.7523 179.088 85.4905C179.012 83.4039 179.192 83.1955 181.075 83.1955C182.534 83.1955 183.28 83.6178 183.599 84.6234ZM7.06132 86.0067L0 86.4529L7.41438 86.6464C11.4923 86.7523 17.212 86.9931 20.1248 87.181C23.0375 87.3688 42.8975 87.6851 64.258 87.8836C85.6185 88.082 105.423 88.0318 108.267 87.7727C111.112 87.5143 113.256 87.1195 113.033 86.8964C112.81 86.6732 110.324 86.3986 107.509 86.2856C104.692 86.1733 82.5291 85.9643 58.2559 85.8209C33.9826 85.6783 10.945 85.7616 7.06132 86.0067ZM287.749 86.0406C272.796 86.2467 260.483 86.4847 260.386 86.5702C260.289 86.6563 260.209 87.0277 260.209 87.397C260.209 87.8016 268.248 88.1138 280.511 88.1851C291.677 88.25 308.756 88.3454 318.465 88.3969C328.175 88.4492 342.95 88.2324 351.3 87.916C359.65 87.5997 366.705 87.1231 366.978 86.8568C367.251 86.5906 360.945 86.4713 352.965 86.5906C342.447 86.7481 338.589 86.592 338.942 86.0229C339.293 85.4545 336.037 85.297 327.181 85.4523C320.445 85.5703 302.701 85.8351 287.749 86.0406Z" fill="#393939"/>
</svg>
