<svg width="138" height="23" viewBox="0 0 138 23" fill="none" xmlns="http://www.w3.org/2000/svg">
<path fill-rule="evenodd" clip-rule="evenodd" d="M125.824 0.899764C125.424 1.23975 124.861 2.1977 124.073 3.8791C123.434 5.24217 122.88 6.38836 122.843 6.42616C122.805 6.46396 121.638 6.68303 120.248 6.91293C118.858 7.14283 117.436 7.46759 117.088 7.63437C116.74 7.80134 116.35 8.13821 116.22 8.38278C116.091 8.62754 115.992 9.08 116.001 9.38825C116.009 9.69649 116.181 10.215 116.382 10.5405C116.583 10.866 117.553 11.9408 118.538 12.929L120.328 14.726L119.898 17.516C119.661 19.0506 119.515 20.5653 119.573 20.8819C119.631 21.1986 119.901 21.6819 120.172 21.956C120.6 22.389 120.775 22.4437 121.507 22.3727C122.109 22.3142 123.02 21.9195 124.71 20.9851L127.072 19.6792L129.405 20.9355C130.689 21.6265 132.01 22.2501 132.341 22.3213C132.701 22.3988 133.159 22.3599 133.483 22.2241C133.781 22.0995 134.143 21.7656 134.288 21.4821C134.433 21.1986 134.553 20.6528 134.554 20.2695C134.555 19.886 134.375 18.4351 134.153 17.0452L133.75 14.5183L135.577 12.6417C136.582 11.6096 137.539 10.561 137.702 10.3115C137.866 10.0622 138 9.56439 138 9.20569C138 8.84699 137.873 8.36939 137.717 8.14463C137.561 7.91968 137.212 7.61988 136.941 7.47823C136.67 7.33658 135.28 7.04797 133.852 6.83715C132.424 6.62615 131.219 6.4535 131.174 6.4535C131.129 6.4535 130.568 5.35079 129.927 4.00313C129.118 2.30228 128.563 1.37626 128.111 0.975725C127.703 0.613537 127.266 0.398682 126.937 0.398682C126.631 0.398682 126.168 0.607115 125.824 0.899764Z" fill="#FEC84E"/>
<path fill-rule="evenodd" clip-rule="evenodd" d="M67.8238 0.899764C67.4242 1.23975 66.8612 2.1977 66.0728 3.8791C65.4336 5.24217 64.8801 6.38836 64.8427 6.42616C64.8053 6.46396 63.6376 6.68303 62.2478 6.91293C60.858 7.14283 59.4363 7.46759 59.0884 7.63437C58.7404 7.80134 58.3499 8.13821 58.2203 8.38278C58.0907 8.62754 57.9918 9.08 58.0005 9.38825C58.0092 9.69649 58.1809 10.215 58.382 10.5405C58.5831 10.866 59.5531 11.9408 60.5375 12.929L62.3275 14.726L61.8976 17.516C61.6613 19.0506 61.5154 20.5653 61.5733 20.8819C61.6313 21.1986 61.9007 21.6819 62.1718 21.956C62.5999 22.389 62.7752 22.4437 63.5066 22.3727C64.109 22.3142 65.0202 21.9195 66.7102 20.9851L69.0722 19.6792L71.4054 20.9355C72.6889 21.6265 74.0095 22.2501 74.3406 22.3213C74.701 22.3988 75.1594 22.3599 75.4834 22.2241C75.781 22.0995 76.1431 21.7656 76.2881 21.4821C76.4331 21.1986 76.5527 20.6528 76.554 20.2695C76.5552 19.886 76.3746 18.4351 76.1531 17.0452L75.7498 14.5183L77.5774 12.6417C78.5824 11.6096 79.5387 10.561 79.7024 10.3115C79.8661 10.0622 80 9.56439 80 9.20569C80 8.84699 79.8726 8.36939 79.7167 8.14463C79.561 7.91968 79.2118 7.61988 78.9409 7.47823C78.6699 7.33658 77.2801 7.04797 75.8522 6.83715C74.4242 6.62615 73.2192 6.4535 73.174 6.4535C73.129 6.4535 72.5676 5.35079 71.9268 4.00313C71.1177 2.30228 70.5626 1.37626 70.1112 0.975725C69.7033 0.613537 69.2661 0.398682 68.937 0.398682C68.6309 0.398682 68.1679 0.607115 67.8238 0.899764Z" fill="#FEC84E"/>
<path fill-rule="evenodd" clip-rule="evenodd" d="M96.8238 0.899764C96.4242 1.23975 95.8612 2.1977 95.0728 3.8791C94.4336 5.24217 93.8801 6.38836 93.8427 6.42616C93.8053 6.46396 92.6376 6.68303 91.2478 6.91293C89.858 7.14283 88.4363 7.46759 88.0884 7.63437C87.7404 7.80134 87.3499 8.13821 87.2203 8.38278C87.0907 8.62754 86.9918 9.08 87.0005 9.38825C87.0092 9.69649 87.1809 10.215 87.382 10.5405C87.5831 10.866 88.5531 11.9408 89.5375 12.929L91.3275 14.726L90.8976 17.516C90.6613 19.0506 90.5154 20.5653 90.5733 20.8819C90.6313 21.1986 90.9007 21.6819 91.1718 21.956C91.5999 22.389 91.7752 22.4437 92.5066 22.3727C93.109 22.3142 94.0202 21.9195 95.7102 20.9851L98.0722 19.6792L100.405 20.9355C101.689 21.6265 103.01 22.2501 103.341 22.3213C103.701 22.3988 104.159 22.3599 104.483 22.2241C104.781 22.0995 105.143 21.7656 105.288 21.4821C105.433 21.1986 105.553 20.6528 105.554 20.2695C105.555 19.886 105.375 18.4351 105.153 17.0452L104.75 14.5183L106.577 12.6417C107.582 11.6096 108.539 10.561 108.702 10.3115C108.866 10.0622 109 9.56439 109 9.20569C109 8.84699 108.873 8.36939 108.717 8.14463C108.561 7.91968 108.212 7.61988 107.941 7.47823C107.67 7.33658 106.28 7.04797 104.852 6.83715C103.424 6.62615 102.219 6.4535 102.174 6.4535C102.129 6.4535 101.568 5.35079 100.927 4.00313C100.118 2.30228 99.5626 1.37626 99.1112 0.975725C98.7033 0.613537 98.2661 0.398682 97.937 0.398682C97.6309 0.398682 97.1679 0.607115 96.8238 0.899764Z" fill="#FEC84E"/>
<path fill-rule="evenodd" clip-rule="evenodd" d="M38.8238 0.899764C38.4242 1.23975 37.8612 2.1977 37.0728 3.8791C36.4336 5.24217 35.8801 6.38836 35.8427 6.42616C35.8053 6.46396 34.6376 6.68303 33.2478 6.91293C31.858 7.14283 30.4363 7.46759 30.0884 7.63437C29.7404 7.80134 29.3499 8.13821 29.2203 8.38278C29.0907 8.62754 28.9918 9.08 29.0005 9.38825C29.0092 9.69649 29.1809 10.215 29.382 10.5405C29.5831 10.866 30.5531 11.9408 31.5375 12.929L33.3275 14.726L32.8976 17.516C32.6613 19.0506 32.5154 20.5653 32.5733 20.8819C32.6313 21.1986 32.9007 21.6819 33.1718 21.956C33.5999 22.389 33.7752 22.4437 34.5066 22.3727C35.109 22.3142 36.0202 21.9195 37.7102 20.9851L40.0722 19.6792L42.4054 20.9355C43.6889 21.6265 45.0095 22.2501 45.3406 22.3213C45.701 22.3988 46.1594 22.3599 46.4834 22.2241C46.781 22.0995 47.1431 21.7656 47.2881 21.4821C47.4331 21.1986 47.5527 20.6528 47.554 20.2695C47.5552 19.886 47.3746 18.4351 47.1531 17.0452L46.7498 14.5183L48.5774 12.6417C49.5824 11.6096 50.5387 10.561 50.7024 10.3115C50.8661 10.0622 51 9.56439 51 9.20569C51 8.84699 50.8726 8.36939 50.7167 8.14463C50.561 7.91968 50.2118 7.61988 49.9409 7.47823C49.6699 7.33658 48.2801 7.04797 46.8522 6.83715C45.4242 6.62615 44.2192 6.4535 44.174 6.4535C44.129 6.4535 43.5676 5.35079 42.9268 4.00313C42.1177 2.30228 41.5626 1.37626 41.1112 0.975725C40.7033 0.613537 40.2661 0.398682 39.937 0.398682C39.6309 0.398682 39.1679 0.607115 38.8238 0.899764Z" fill="#FEC84E"/>
<path fill-rule="evenodd" clip-rule="evenodd" d="M9.82379 0.899764C9.42416 1.23975 8.86119 2.1977 8.07282 3.8791C7.43363 5.24217 6.8801 6.38836 6.84271 6.42616C6.80532 6.46396 5.63765 6.68303 4.24783 6.91293C2.85802 7.14283 1.43626 7.46759 1.08836 7.63437C0.740449 7.80134 0.349894 8.13821 0.220313 8.38278C0.0907329 8.62754 -0.00817724 9.08 0.00053406 9.38825C0.00924536 9.69649 0.180929 10.215 0.382015 10.5405C0.583101 10.866 1.55314 11.9408 2.53752 12.929L4.3275 14.726L3.89757 17.516C3.66127 19.0506 3.51536 20.5653 3.57326 20.8819C3.63133 21.1986 3.90066 21.6819 4.17179 21.956C4.59992 22.389 4.77523 22.4437 5.50662 22.3727C6.10897 22.3142 7.0202 21.9195 8.71019 20.9851L11.0722 19.6792L13.4054 20.9355C14.6889 21.6265 16.0095 22.2501 16.3406 22.3213C16.701 22.3988 17.1594 22.3599 17.4834 22.2241C17.781 22.0995 18.1431 21.7656 18.2881 21.4821C18.4331 21.1986 18.5527 20.6528 18.554 20.2695C18.5552 19.886 18.3746 18.4351 18.1531 17.0452L17.7498 14.5183L19.5774 12.6417C20.5824 11.6096 21.5387 10.561 21.7024 10.3115C21.8661 10.0622 22 9.56439 22 9.20569C22 8.84699 21.8726 8.36939 21.7167 8.14463C21.561 7.91968 21.2118 7.61988 20.9409 7.47823C20.6699 7.33658 19.2801 7.04797 17.8522 6.83715C16.4242 6.62615 15.2192 6.4535 15.174 6.4535C15.129 6.4535 14.5676 5.35079 13.9268 4.00313C13.1177 2.30228 12.5626 1.37626 12.1112 0.975725C11.7033 0.613537 11.2661 0.398682 10.937 0.398682C10.6309 0.398682 10.1679 0.607115 9.82379 0.899764Z" fill="#FEC84E"/>
</svg>
