<svg width="103" height="110" viewBox="0 0 103 110" fill="none" xmlns="http://www.w3.org/2000/svg">
<path fill-rule="evenodd" clip-rule="evenodd" d="M9.3485 18.6633C7.4929 20.1139 5.08941 22.6565 4.00695 24.3142C2.92448 25.972 1.67787 28.8161 1.23525 30.6354C0.792903 32.4558 0.89521 35.8296 1.46232 38.1341C2.02944 40.4386 3.3252 43.0223 4.34117 43.8745C6.01805 45.2828 7.17122 44.1651 16.8959 31.7066C22.7848 24.161 27.4957 17.5526 27.3647 17.0205C27.2335 16.4872 26.0423 15.7749 24.7176 15.4374C23.3938 15.0986 20.1523 15.0924 17.5155 15.4234C14.4589 15.8081 11.4998 16.9821 9.3485 18.6633ZM70.1002 3.21204C68.782 4.15496 67.2 5.60849 66.5831 6.44332C65.7178 7.61223 69.1681 9.6507 81.6656 15.3541C90.5771 19.4222 98.0569 22.7035 98.2861 22.6471C98.5152 22.5907 98.9518 20.9203 99.2543 18.9339C99.5598 16.9318 99.099 13.6647 98.2191 11.5961C97.3467 9.54409 95.0032 6.55487 93.0121 4.95091C91.0213 3.34803 87.0164 1.5313 84.1127 0.913248C81.2103 0.296016 77.4085 0.175395 75.6648 0.643667C73.9213 1.11303 71.4171 2.26831 70.1002 3.21204ZM19.8378 19.9785C19.7748 20.5791 16.6682 24.9821 12.9359 29.7636C6.22368 38.363 6.141 38.4248 5.41415 35.4478C5.01011 33.7919 5.44851 30.8368 6.38993 28.882C7.33108 26.9262 9.38388 24.2223 10.9519 22.8712C12.5201 21.5213 15.187 20.0725 16.8779 19.6518C18.5702 19.2319 19.9021 19.3787 19.8378 19.9785ZM84.4599 5.60539C86.7652 6.46401 89.9089 8.20704 91.4444 9.48083C92.981 10.7544 94.3294 12.8827 94.442 14.2107C94.6281 16.4039 93.8109 16.2422 85.5577 12.4533C80.5587 10.159 75.5805 7.7571 74.4957 7.11646C72.7747 6.10022 73.0169 5.82985 76.3955 4.99842C78.624 4.45002 82.0482 4.70732 84.4599 5.60539ZM34.6269 21.6315C31.7146 23.1314 27.3699 25.9858 24.9706 27.9745C22.5722 29.9619 19.2341 34.2295 17.5518 37.4561C15.829 40.7618 13.8975 47.4925 13.129 52.8739C11.8053 62.1398 11.8731 62.8038 15.3905 75.178C18.722 86.8999 19.4419 88.4401 24.2781 94.1963C27.5228 98.058 31.9822 101.764 35.9123 103.861C39.4168 105.732 43.8751 107.589 45.8183 107.988C47.7626 108.386 50.5296 108.935 51.9684 109.207C53.4075 109.481 56.8392 109.249 59.5964 108.692C62.3528 108.135 64.9421 107.883 65.3505 108.129C65.7581 108.377 69.5666 107.495 73.8145 106.171C78.0613 104.847 82.2004 103.301 83.0114 102.735C83.8224 102.169 85.661 101.215 87.0968 100.614C88.5326 100.014 91.3871 97.5765 93.4384 95.1989C95.4911 92.8221 97.6498 90.759 98.2341 90.6152C98.8194 90.4712 99.4093 89.4748 99.5445 88.4003C99.6787 87.3261 99.4851 86.2634 99.113 86.0383C98.7408 85.8131 98.3254 86.5074 98.1913 87.5816C98.056 88.6561 97.4987 89.6444 96.9525 89.7788C96.4062 89.9132 94.4291 91.661 92.5606 93.663C90.6907 95.6643 86.3122 98.648 82.8305 100.291C77.9929 102.575 73.874 103.632 65.3738 104.769C57.7099 105.795 52.0359 105.845 47.1398 104.928C43.2301 104.196 38.3326 102.632 36.2562 101.454C34.1797 100.275 31.1205 97.9766 29.4585 96.3481C27.7966 94.7195 24.673 90.3063 22.5187 86.5415C20.3634 82.7769 17.9671 77.1205 17.1923 73.9721C16.4172 70.8226 15.8647 64.2714 15.9648 59.4127C16.0646 54.5529 16.4245 49.4207 16.7653 48.0065C17.1061 46.5924 18.5137 43.0267 19.8925 40.0832C21.3659 36.9391 24.8543 32.6034 28.3484 29.5736C33.1648 25.3972 35.8357 23.9647 42.3864 22.0429C46.836 20.7382 53.9834 19.2662 58.2711 18.7731C62.8084 18.2508 68.8023 18.5081 72.6148 19.3885C76.2165 20.2218 80.9926 22.177 83.2272 23.7361C85.4615 25.294 88.7602 28.2705 90.5583 30.3492C92.3561 32.4269 95.6675 37.6877 97.9167 42.0396C101.295 48.575 102.015 49.43 102.056 46.9538C102.085 45.2604 100.603 41.1712 98.6507 37.5525C96.7495 34.0294 93.368 29.0784 91.1368 26.55C88.9055 24.0215 85.301 21.0753 83.1262 20.0026C80.9515 18.9299 77.6288 17.6813 75.7422 17.2276C73.8557 16.7739 70.0227 16.2175 67.2255 15.9902C64.4283 15.7628 60.362 15.7281 58.1899 15.9113C56.0178 16.0945 51.0191 16.8432 47.0815 17.5749C43.1439 18.3066 37.5393 20.1316 34.6269 21.6315ZM32.2057 39.7955C31.4081 40.631 31.7289 41.7004 33.4901 44.0693C34.7817 45.8074 36.3686 47.0985 37.0159 46.9392C37.8597 46.7315 38.0134 47.3514 37.5582 49.1335C37.2089 50.4991 37.3084 51.9938 37.7779 52.4553C38.2471 52.9157 38.2105 53.7218 37.6959 54.2469C37.181 54.771 37.0086 56.275 37.3111 57.5885C37.6147 58.9017 37.3787 61.1021 36.7864 62.4768C36.1954 63.8523 36.0473 66.3444 36.4586 68.0158C36.8697 69.6861 36.6156 72.2249 35.8942 73.6556C35.1731 75.0873 34.542 78.7475 34.4922 81.789C34.4414 84.8307 34.6337 88.3642 34.9206 89.6424C35.2073 90.9194 36.3359 92.3981 37.4304 92.9281C38.5238 93.4584 41.3511 93.5977 43.7113 93.238C46.2401 92.8518 48.298 91.9239 48.7189 90.9806C49.1114 90.0997 49.2994 86.0429 49.1368 81.9653C48.9731 77.8879 49.4802 71.3604 50.2642 67.4599C51.0478 63.5583 51.2904 59.7933 50.8036 59.093C50.3155 58.3919 50.3771 57.3505 50.9389 56.778C51.4995 56.2058 51.4322 54.8748 50.7867 53.8197C50.1423 52.7643 50.0683 51.7896 50.6233 51.6531C51.1782 51.5165 51.0606 50.1587 50.3612 48.6365C49.6629 47.1141 48.1997 44.8516 47.1095 43.6087C46.0204 42.3656 43.219 40.5533 40.8851 39.5831C38.551 38.6118 35.8832 38.0117 34.9568 38.2489C34.0296 38.4874 32.7923 39.1835 32.2057 39.7955ZM76.1442 34.9802C75.9365 35.6245 74.9513 36.0489 73.9552 35.9231C72.9591 35.7974 70.1956 37.392 67.8136 39.4651C65.4327 41.5379 63.0095 44.5807 62.4305 46.2251C61.8508 47.8708 60.3461 49.9285 59.087 50.7981C57.8281 51.6688 56.9834 53.1321 57.2095 54.0509C57.4356 54.9696 57.3756 56.6821 57.077 57.8556C56.7783 59.029 56.3813 62.817 56.1955 66.2744C55.9722 70.4078 56.3146 72.8379 57.1915 73.3684C57.9263 73.813 58.4791 74.7723 58.4203 75.5021C58.3612 76.2307 59.5673 78.3331 61.1004 80.173C62.6336 82.0129 65.1052 83.7301 66.5937 83.9892C68.0823 84.2483 69.4649 85.1301 69.6661 85.9479C69.8783 86.8102 70.6401 87.0132 71.4761 86.432C72.2696 85.8796 73.3236 85.8241 73.8172 86.3085C74.3107 86.7929 75.8842 86.901 77.3144 86.549C78.7447 86.197 81.0194 85.036 82.3702 83.9676C83.7212 82.9003 84.7124 81.5645 84.5732 80.9987C84.4342 80.4339 85.1226 80.0722 86.1033 80.196C87.0837 80.3187 88.5498 79.9579 89.3613 79.3942C90.1726 78.8294 90.675 77.7118 90.4775 76.9093C90.28 76.1067 90.8228 74.7925 91.6823 73.989C92.6974 73.0401 92.9139 71.0461 92.3001 68.3084C91.7797 65.9878 91.7275 63.651 92.1838 63.1137C92.6415 62.5772 93.0918 59.3566 93.1846 55.9567C93.2788 52.5577 93.0443 48.6187 92.6638 47.2035C92.2846 45.7891 91.2124 44.3759 90.2823 44.0646C89.3509 43.7525 88.9292 43.4059 89.3439 43.2935C89.7588 43.1822 89.2083 41.7224 88.1211 40.0515C86.8981 38.171 85.6444 37.3589 84.8361 37.9217C84.1171 38.4212 83.0594 38.0641 82.4867 37.127C81.9143 36.1909 80.3381 35.0607 78.9848 34.6163C77.5277 34.1387 76.3686 34.2868 76.1442 34.9802ZM78.2715 44.3689C79.2638 44.4933 79.9876 45.3 79.8802 46.1603C79.7716 47.0198 80.2441 47.9055 80.9298 48.1272C81.6592 48.3624 80.9667 53.7251 79.2631 61.0354C76.7696 71.7352 75.9418 73.6931 73.5324 74.5924C71.2961 75.4272 70.1959 75.0472 68.1797 72.7422C66.4915 70.8103 66.0574 69.7389 66.8838 69.5355C67.6191 69.3546 67.641 68.339 66.9372 67.0425C66.2841 65.8396 66.1576 63.149 66.6549 61.0652C67.1533 58.981 68.3143 56.4067 69.2369 55.3446C70.1583 54.2817 70.5201 53.0282 70.0401 52.5566C69.5604 52.0861 70.2429 50.1559 71.5565 48.2674C72.8704 46.3799 74.5134 44.6787 75.2061 44.4886C75.8996 44.2973 77.2789 44.2435 78.2715 44.3689Z" fill="#393939"/>
</svg>
