<svg width="70" height="70" viewBox="0 0 70 70" fill="none" xmlns="http://www.w3.org/2000/svg">
<path fill-rule="evenodd" clip-rule="evenodd" d="M26.3797 3.24872C25.1451 3.30004 23.3431 3.64948 22.3748 4.02543C21.4065 4.40139 20.0056 5.23304 19.2607 5.87348C18.5157 6.51446 17.528 7.98425 17.0654 9.14023C16.6028 10.2962 16.3655 11.7939 16.5382 12.4678C16.8227 13.5809 17.656 13.4569 25.6108 11.1173C30.4282 9.70004 34.4569 8.32232 34.5638 8.05538C34.6708 7.78791 34.3806 7.12005 33.919 6.57125C33.4581 6.02212 32.0778 5.0286 30.8524 4.36373C29.4315 3.59347 27.8109 3.18949 26.3797 3.24872ZM57.0065 15.2308C56.1562 15.2299 55.0374 15.3662 54.5191 15.5335C53.7929 15.7674 54.6409 17.6913 58.2263 23.9433C60.7825 28.4019 62.9688 32.0874 63.0837 32.1334C63.1987 32.1794 63.8955 31.6007 64.6316 30.8462C65.3739 30.0859 66.1761 28.552 66.4332 27.401C66.6885 26.2593 66.603 24.2684 66.2443 22.9759C65.8854 21.6839 64.7331 19.6851 63.6839 18.5339C62.6351 17.3836 61.0509 16.17 60.1643 15.8367C59.2774 15.5039 57.8565 15.231 57.0065 15.2308ZM30.4502 7.01583C30.2397 7.25267 27.5692 8.18042 24.5162 9.07836C19.0256 10.6932 18.9715 10.6943 19.5715 9.20278C19.9054 8.37322 20.9957 7.24722 21.9946 6.70151C22.9937 6.15526 24.6955 5.62983 25.7771 5.53305C26.8584 5.43682 28.4384 5.63431 29.288 5.9718C30.1379 6.31005 30.661 6.77976 30.4502 7.01583ZM62.3977 20.6408C63.1182 21.7115 63.9258 23.4157 64.1912 24.4282C64.4571 25.4409 64.3814 26.7606 64.0235 27.3612C63.4324 28.3533 63.1334 28.0345 60.7726 23.8962C59.3424 21.3898 57.9539 18.844 57.6872 18.2392C57.2641 17.2799 57.4499 17.2386 59.1447 17.9169C60.2625 18.3642 61.6439 19.5206 62.3977 20.6408ZM36.2508 12.2413C34.5505 11.9907 31.8255 11.8797 30.1945 11.9942C28.5644 12.1085 25.8366 12.9077 24.133 13.7693C22.3879 14.6522 19.507 16.9317 17.5343 18.9913C14.1376 22.5375 13.9635 22.8414 11.6808 29.1927C9.51816 35.2092 9.35434 36.086 9.65688 40.0187C9.85994 42.657 10.6287 45.6002 11.6632 47.696C12.5856 49.5649 13.9189 51.7196 14.6257 52.4834C15.333 53.2474 16.345 54.3274 16.8752 54.8834C17.4052 55.4399 18.9392 56.3901 20.2853 56.9952C21.6306 57.6006 22.8119 58.2844 22.9107 58.5142C23.0089 58.7444 24.9023 59.5325 27.1183 60.2664C29.3338 61.0001 31.5712 61.6061 32.09 61.6127C32.6087 61.6193 33.6841 61.7748 34.4801 61.9574C35.276 62.1401 37.238 61.9735 38.8395 61.5868C40.4412 61.2008 41.9923 60.981 42.2854 61.0982C42.579 61.2158 43.1351 60.9712 43.5212 60.5544C43.9068 60.1374 44.1491 59.6251 44.0592 59.4154C43.9694 59.2056 43.58 59.3746 43.1944 59.7917C42.8083 60.2085 42.2686 60.4595 41.9946 60.3499C41.7206 60.2402 40.3433 60.3811 38.9346 60.6636C37.5256 60.9453 34.7467 60.8791 32.7597 60.5156C29.999 60.0105 27.9196 59.2023 23.9476 57.0888C20.3664 55.1834 17.9318 53.4703 16.1244 51.5828C14.6811 50.0755 13.0709 47.9117 12.5458 46.7744C12.0207 45.6371 11.4189 43.7221 11.208 42.5197C10.9972 41.3173 11.0143 38.4807 11.2466 36.2169C11.4783 33.9529 12.1856 30.8086 12.8176 29.2293C13.4499 27.6495 15.2168 24.6873 16.7447 22.6462C18.2728 20.6046 19.995 18.5263 20.5726 18.0274C21.1502 17.5286 22.8403 16.4386 24.328 15.605C25.9173 14.7147 28.73 13.9324 31.146 13.7086C34.4763 13.4 36.053 13.6057 39.4336 14.7886C41.7296 15.5925 45.2272 17.1496 47.2061 18.25C49.3004 19.4143 51.7775 21.3561 53.1339 22.897C54.4149 24.3532 55.8538 26.6468 56.33 27.9946C56.8065 29.3419 57.3031 31.6193 57.4344 33.0553C57.5659 34.4908 57.3697 37.7461 56.9985 40.2893C56.4413 44.1086 56.4868 44.6931 57.2613 43.6499C57.7913 42.9368 58.4094 40.7402 58.683 38.6004C58.9493 36.517 59.0209 33.3723 58.8424 31.6122C58.6639 29.852 58.0276 27.494 57.4282 26.3719C56.8288 25.2497 55.7937 23.7017 55.128 22.9315C54.4623 22.1614 52.998 20.7525 51.8748 19.8006C50.7516 18.8486 49.0284 17.5908 48.0463 17.005C47.0641 16.4191 44.7038 15.2104 42.8012 14.3187C40.8987 13.4271 37.951 12.492 36.2508 12.2413ZM29.6661 19.2461C29.0706 19.3586 28.8805 19.9126 28.9074 21.461C28.9268 22.5969 29.2088 23.6325 29.5335 23.7625C29.9567 23.9319 29.8328 24.2431 29.094 24.8639C28.5276 25.3394 28.1131 26.0071 28.1722 26.3474C28.2315 26.6871 27.9696 27.0196 27.5896 27.0862C27.2099 27.1523 26.6766 27.7409 26.4041 28.3934C26.1321 29.0462 25.3589 29.9122 24.6861 30.3173C24.0137 30.7232 23.1888 31.7405 22.8533 32.5789C22.5179 33.4167 21.6336 34.4216 20.8887 34.8111C20.1435 35.2012 18.7556 36.5689 17.8047 37.8505C16.8532 39.1319 15.8551 40.6974 15.5867 41.3301C15.3186 41.9622 15.3478 42.9377 15.6525 43.4983C15.9566 44.0586 17.1196 44.9822 18.2359 45.5503C19.4321 46.1586 20.5933 46.392 21.0611 46.1185C21.4977 45.8628 22.818 44.1905 23.995 42.4022C25.1716 40.6136 27.3831 37.9854 28.9097 36.5619C30.4365 35.1378 31.6907 33.6066 31.6972 33.1593C31.7034 32.7111 32.048 32.2859 32.4625 32.2135C32.8765 32.1409 33.2547 31.5528 33.302 30.9056C33.3498 30.2586 33.6162 29.8204 33.8946 29.9319C34.1729 30.0433 34.5378 29.4284 34.7049 28.5655C34.8725 27.7029 34.9402 26.291 34.8553 25.4278C34.7709 24.5648 34.1304 22.9357 33.4318 21.8087C32.7335 20.681 31.7794 19.6097 31.3119 19.4276C30.8436 19.2459 30.1033 19.1645 29.6661 19.2461ZM49.8728 30.6239C49.5873 30.8351 49.0375 30.7149 48.6512 30.3568C48.2649 29.9987 46.5992 29.8339 44.9499 29.9897C43.3011 30.1458 41.3377 30.7024 40.5882 31.2266C39.8379 31.7511 38.5674 32.1685 37.7647 32.1544C36.9618 32.1409 36.1543 32.5066 35.9699 32.9675C35.7855 33.4284 35.2364 34.1402 34.7504 34.5493C34.2643 34.9583 32.9372 36.4521 31.8011 37.8695C30.4424 39.5637 29.8456 40.7045 30.0573 41.1987C30.2347 41.6129 30.1772 42.1909 29.929 42.4841C29.6811 42.7767 29.5527 44.0418 29.644 45.295C29.7353 46.5481 30.2643 48.0358 30.8198 48.6013C31.3753 49.1668 31.6952 49.9654 31.5311 50.3756C31.358 50.8082 31.6207 51.1276 32.1548 51.1353C32.662 51.1424 33.1284 51.4409 33.1908 51.7983C33.2532 52.1557 33.891 52.6827 34.6085 52.9698C35.3259 53.257 36.6507 53.4573 37.5532 53.4146C38.4555 53.3725 39.2865 53.1059 39.4001 52.8221C39.5135 52.5388 39.9176 52.595 40.2979 52.9475C40.6784 53.2995 41.4139 53.5939 41.9322 53.6016C42.4507 53.6088 43.0066 53.2858 43.1677 52.8832C43.3288 52.4806 43.9619 52.0862 44.5741 52.0064C45.2969 51.912 45.9987 51.128 46.5739 49.773C47.0613 48.6245 47.7534 47.6122 48.1122 47.5226C48.4714 47.4337 49.6478 46.1981 50.7266 44.7768C51.8058 43.3563 52.9099 41.6051 53.1802 40.8853C53.4509 40.1664 53.4257 39.2361 53.1242 38.819C52.8225 38.4012 52.7487 38.1246 52.9598 38.2034C53.1708 38.2827 53.3823 37.4921 53.4294 36.4473C53.4828 35.2716 53.1965 34.5421 52.6798 34.535C52.2205 34.5282 51.8787 34.0526 51.921 33.478C51.963 32.9039 51.6364 31.9402 51.1953 31.337C50.72 30.688 50.1805 30.3968 49.8728 30.6239ZM47.91 35.2774C48.2951 35.6337 48.3571 36.1989 48.0484 36.5329C47.7393 36.8662 47.67 37.3883 47.8946 37.6924C48.1337 38.0157 46.1992 40.0906 43.2382 42.6868C38.9044 46.4869 37.953 47.0687 36.6507 46.7156C35.442 46.388 35.0891 45.8897 34.934 44.2906C34.8047 42.9508 34.9471 42.3612 35.3616 42.5271C35.7304 42.6747 36.0502 42.2484 36.1464 41.4805C36.2357 40.7679 37.0042 39.582 37.8532 38.8455C38.7028 38.1092 39.9847 37.3664 40.7028 37.1956C41.4205 37.024 41.958 36.6002 41.8974 36.2524C41.8367 35.9051 42.7178 35.2907 43.8551 34.887C44.9923 34.4838 46.2129 34.2607 46.5663 34.3914C46.9205 34.5218 47.5251 34.9205 47.91 35.2774Z" fill="white"/>
</svg>
